<?xml version="1.0" encoding="UTF-8"?>
<svg version="1.1" xmlns="http://www.w3.org/2000/svg" width="1532" height="1524">
<path d="M0 0 C166.32 0 332.64 0 504 0 C502.72574713 3.18563217 501.44605485 6.26018016 500.00390625 9.359375 C465.57001868 84.82376247 457.59397378 170.7930233 482 363 C482.15944092 363.65129883 482.31888184 364.30259766 482.4831543 364.97363281 C493.56698239 410.23397405 508.5592462 455.12567034 527.88671875 497.54980469 C529.00359413 500.00791024 530.09820405 502.47487518 531.1875 504.9453125 C544.35391454 534.70529916 558.98484279 563.7754492 575.1640625 592.0078125 C577.47386484 596.04581228 579.66878712 600.12171449 581.8125 604.25 C587.43505931 614.90451365 593.73306238 625.18354591 599.91845703 635.51757812 C601.89063938 638.81380778 603.8503101 642.11736714 605.80859375 645.421875 C618.51176762 666.8086559 632.05351363 687.6212649 645.71331787 708.40390015 C646.96428352 710.30722835 648.21451635 712.21103844 649.46392822 714.11538696 C657.62235564 726.54243837 665.97537505 738.80934049 674.55358887 750.95040894 C676.37036701 753.52481684 678.17308097 756.1088573 679.97265625 758.6953125 C690.87990013 774.34086604 702.01602178 789.79714284 713.50732422 805.01904297 C715.03155934 807.04188297 716.5498742 809.06903594 718.06640625 811.09765625 C723.38383414 818.20987494 728.73777252 825.28960952 734.16796875 832.31640625 C736.41445963 835.22981118 738.64070774 838.15815577 740.86328125 841.08984375 C747.76373105 850.18924012 754.67418203 859.23746821 762 868 C767.43417914 874.59137232 772.79691483 881.22427815 778 888 C776.6268723 891.23854967 775.22679535 892.85332607 772.35546875 894.859375 C768.20615929 897.84066834 764.25781568 901.0057237 760.3125 904.25 C754.35107767 909.12323721 748.31780297 913.87717633 742.19921875 918.55078125 C732.98699433 925.58809379 723.94588244 932.83335922 714.96386719 940.16113281 C710.09057853 944.13082763 705.17040245 948.03495809 700.21875 951.90625 C695.95537 955.24154728 691.72205605 958.61257434 687.5 962 C682.71056443 965.84264367 677.89994408 969.65549827 673.0625 973.4375 C667.99484628 977.40199101 662.98541669 981.43265069 658 985.5 C651.31440165 990.95325957 644.56149868 996.31217351 637.76171875 1001.62207031 C635.89045002 1003.0856846 634.02291423 1004.55395585 632.15625 1006.0234375 C631.52348145 1006.52149902 630.89071289 1007.01956055 630.23876953 1007.53271484 C629.03125059 1008.48335525 627.8238841 1009.43418934 626.61669922 1010.38525391 C623.76932244 1012.62469769 620.90996434 1014.84236791 618 1017 C614.31309608 1015.50553115 612.5042867 1013.47761573 610.0625 1010.375 C609.27875 1009.39015625 608.495 1008.4053125 607.6875 1007.390625 C607.25953125 1006.84857422 606.8315625 1006.30652344 606.390625 1005.74804688 C604.90130119 1003.87593338 603.39097127 1002.0224692 601.875 1000.171875 C595.96839679 992.9604063 590.17789337 985.68461752 584.5234375 978.2734375 C581.257648 974.01314905 577.88938399 969.83543292 574.52661133 965.65161133 C571.19300064 961.5012155 567.89900147 957.32249941 564.625 953.125 C560.54748714 947.90311704 556.35803179 942.78385894 552.125 937.6875 C546.8073291 931.28303239 541.70809586 924.74457691 536.69067383 918.10327148 C532.92847177 913.14816206 529.00351483 908.37653813 524.94580078 903.66210938 C521.46858468 899.60514675 518.2049298 895.41263284 514.97753906 891.15307617 C511.45218982 886.52760331 507.77439041 882.03910394 504.0625 877.5625 C499.32737837 871.85096626 494.67376233 866.09039499 490.11352539 860.23852539 C486.63154761 855.77932892 483.07759193 851.38274669 479.5 847 C474.99067103 841.47463329 470.54727133 835.90483676 466.15966797 830.2824707 C462.70625452 825.86894609 459.17512472 821.52342935 455.625 817.1875 C451.09122056 811.64718651 446.69423578 806.02143642 442.375 800.3125 C438.07987187 794.63908449 433.6572658 789.12999488 429.01855469 783.73486328 C425.30341088 779.40142687 421.77102251 774.94419498 418.26513672 770.44067383 C414.73419624 765.91256382 411.13176249 761.44754674 407.5 757 C402.99222351 751.47674994 398.55157061 745.90815183 394.1640625 740.2890625 C390.66223649 735.81563158 387.09183079 731.40137622 383.5 727 C378.97245928 721.45081941 374.50484138 715.86084363 370.09375 710.21875 C366.75845272 705.95537 363.38742566 701.72205605 360 697.5 C356.15735435 692.71056197 352.34468852 687.89979959 348.5625 683.0625 C341.42302336 673.94284349 334.08695884 664.98195824 326.7421875 656.02734375 C321.16273333 649.21090343 315.69224088 642.3359844 310.375 635.3125 C306.08090014 629.64085393 301.65909993 624.13386871 297.02294922 618.73925781 C292.29128013 613.21811722 287.82816171 607.49705862 283.36621094 601.75732422 C276.61849761 593.0779031 269.78610533 584.47611819 262.83422852 575.95922852 C259.3612952 571.69729571 255.94179168 567.3989357 252.5625 563.0625 C248.44336657 557.77838978 244.21343564 552.59537966 239.9375 547.4375 C235.0221589 541.50724239 230.27388289 535.49214705 225.61328125 529.359375 C222.57248699 525.40622382 219.37586639 521.58429293 216.1875 517.75 C210.82656784 511.29953636 205.67858548 504.7191019 200.6184082 498.03100586 C196.7018986 492.87114085 192.63040363 487.89015164 188.44921875 482.94140625 C185.79825955 479.7577184 183.23490068 476.51656482 180.6875 473.25 C176.68409 468.11711245 172.61662035 463.04254159 168.5 458 C163.99229594 452.47668964 159.55157187 446.90815345 155.1640625 441.2890625 C151.66223753 436.81563292 148.09188836 432.40132798 144.5 428 C139.99240027 422.47660315 135.55157358 416.90815564 131.1640625 411.2890625 C127.66223545 406.81563025 124.09177321 402.40142446 120.5 398 C115.03480474 391.29995038 109.66443876 384.53214839 104.34277344 377.71777344 C102.06766067 374.80728372 99.7833163 371.90405504 97.5 369 C96.58329022 367.83336721 95.66662352 366.66670056 94.75 365.5 C94.29625 364.9225 93.8425 364.345 93.375 363.75 C89.25 358.5 89.25 358.5 87.87548828 356.75048828 C86.95736646 355.58205848 86.03907174 354.41376452 85.12060547 353.24560547 C82.84977631 350.35699494 80.58185054 347.46620452 78.3203125 344.5703125 C73.46811752 338.36465227 68.55528026 332.2182479 63.5625 326.125 C59.25758021 320.86667138 55.102143 315.52698876 51.0625 310.0625 C46.23952597 303.5402857 41.18296169 297.24674234 35.98266602 291.02172852 C31.87352312 286.09958871 27.91653602 281.07634274 24 276 C22.86923337 274.54629614 21.73772858 273.09316614 20.60546875 271.640625 C19.46614583 270.17708333 18.32682292 268.71354167 17.1875 267.25 C16.35895508 266.18652344 16.35895508 266.18652344 15.51367188 265.1015625 C-38.85270753 195.2460103 0 88.51836749 0 0 Z " fill="#F15A23" transform="translate(0,1)"/>
<path d="M0 0 C1.30638428 0.32194336 1.30638428 0.32194336 2.63916016 0.65039062 C27.46601701 6.82403176 51.30232032 16.97087672 74.375 27.875 C75.12645294 28.22922028 75.87790588 28.58344055 76.65213013 28.94839478 C84.79125069 32.80255416 92.71519548 36.82279345 100.42236328 41.49194336 C103.05954584 43.03483753 105.74121114 44.37647432 108.5 45.6875 C126.86731113 54.71550039 144.82881801 66.26385913 161.453125 78.1875 C163.4494824 79.6082206 165.45733258 80.99912062 167.484375 82.375 C182.47972015 92.55791194 197.22113547 103.17806482 211.24971011 114.66747855 C212.99866256 116.04993501 212.99866256 116.04993501 215.02552769 117.21388442 C220.5431849 120.69737081 220.5431849 120.69737081 221.73880917 124.10674821 C222.01967339 126.68432582 222.04425662 129.15711479 221.98438263 131.74950981 C221.99361338 132.73062449 222.00284414 133.71173918 222.01235461 134.72258461 C222.03360714 138.02503289 221.99758883 141.32438843 221.96203613 144.62667847 C221.96552346 147.01187405 221.97252575 149.39706667 221.98274946 151.78224289 C221.99693055 156.97536693 221.98620174 162.16782978 221.9536438 167.36084557 C221.90536645 175.08256672 221.90295684 182.80382536 221.90997971 190.52566992 C221.92049216 203.51472931 221.89375544 216.50346318 221.84584045 229.49242783 C221.79851548 242.35439539 221.76771522 255.2162274 221.75901794 268.0782814 C221.75846803 268.87779106 221.75791811 269.67730071 221.75735153 270.50103793 C221.75464489 274.56128997 221.75223381 278.62154213 221.74993652 282.68179442 C221.73313008 311.44583285 221.67922257 340.20969416 221.60351562 368.97363281 C221.53004904 396.9186102 221.47337584 424.86353914 221.43945312 452.80859375 C221.43840092 453.66987485 221.43734871 454.53115596 221.43626461 455.41853649 C221.42571652 464.06782017 221.41550999 472.71710422 221.40555374 481.3663886 C221.38526365 498.98621519 221.36269363 516.60603861 221.33874512 534.2258606 C221.33709764 535.44107565 221.33709764 535.44107565 221.33541688 536.6808405 C221.26180283 590.78730138 221.1348739 644.89366141 221 699 C218.76018345 700.28409969 216.51988257 701.56734127 214.27929688 702.85009766 C213.64900574 703.21156387 213.0187146 703.57303009 212.36932373 703.94544983 C188.52401692 717.59065334 162.02049406 726.28118783 135 731 C134.31421875 731.12842285 133.6284375 731.2568457 132.921875 731.38916016 C101.15199555 737.16036539 66.66725436 732.83275881 36 724 C34.68467285 723.62149902 34.68467285 723.62149902 33.34277344 723.23535156 C2.08206281 714.00328309 -27.17717318 698.34555376 -54 680 C-54.68964844 679.52884766 -55.37929687 679.05769531 -56.08984375 678.57226562 C-81.1780377 661.33276354 -104.99136032 642.13574343 -127.32421875 621.45703125 C-129.57957151 619.38605769 -131.86404866 617.36849376 -134.1875 615.375 C-137.82232324 612.22933516 -141.18505681 608.85540298 -144.53125 605.40625 C-146.53879233 603.44953152 -148.57483558 601.62518937 -150.69921875 599.80078125 C-154.73035646 596.28435404 -158.52559749 592.58785177 -162.28125 588.78125 C-162.93903442 588.11967896 -163.59681885 587.45810791 -164.27453613 586.77648926 C-167.05066558 583.98421856 -169.82071537 581.18594584 -172.59130859 578.38818359 C-174.6316708 576.32959102 -176.67514331 574.27412097 -178.71875 572.21875 C-179.33045044 571.59875122 -179.94215088 570.97875244 -180.5723877 570.33996582 C-184.38887878 566.50225908 -188.33907289 562.92887443 -192.50598145 559.47277832 C-193.24552063 558.74375305 -193.24552063 558.74375305 -194 558 C-194 557.34 -194 556.68 -194 556 C-194.59683594 555.74089844 -195.19367188 555.48179687 -195.80859375 555.21484375 C-198.1791227 553.90070025 -199.361298 552.65528302 -201.0625 550.5625 C-204.61429877 546.33601457 -208.46142274 542.49752272 -212.44360352 538.68188477 C-213.66523596 537.49058487 -214.83731013 536.24889292 -216 535 C-216 534.34 -216 533.68 -216 533 C-216.66 533 -217.32 533 -218 533 C-219.3046875 531.7421875 -219.3046875 531.7421875 -220.875 529.875 C-221.50019531 529.13894531 -222.12539062 528.40289063 -222.76953125 527.64453125 C-223.87361328 526.33548828 -223.87361328 526.33548828 -225 525 C-225.87757919 523.98192748 -226.75656785 522.96506878 -227.63671875 521.94921875 C-292.90875 446.51460828 -330.44403476 361.77939512 -335 255 C-335.04286133 253.97406738 -335.08572266 252.94813477 -335.12988281 251.89111328 C-337.36564664 191.62711546 -310.75796911 133.33158807 -274 87 C-273.57879883 86.46375 -273.15759766 85.9275 -272.72363281 85.375 C-267.26429503 78.43509314 -267.26429503 78.43509314 -265 76 C-264.34 76 -263.68 76 -263 76 C-262.7313916 75.40614502 -262.4627832 74.81229004 -262.18603516 74.20043945 C-260.99467768 71.99012555 -259.79788102 70.55352817 -258.0234375 68.79296875 C-257.43433594 68.20580078 -256.84523438 67.61863281 -256.23828125 67.01367188 C-255.62339844 66.41103516 -255.00851562 65.80839844 -254.375 65.1875 C-253.78332031 64.59646484 -253.19164062 64.00542969 -252.58203125 63.39648438 C-211.84743225 23.05779401 -157.64978867 -1.25222507 -101 -8 C-100.22261475 -8.09571289 -99.44522949 -8.19142578 -98.64428711 -8.29003906 C-65.31677079 -11.87772192 -32.31440867 -8.23978109 0 0 Z " fill="#F15A23" transform="translate(1311,349)"/>
<path d="M0 0 C1.47302596 0.03109539 1.47302596 0.03109539 2.97581002 0.06281897 C4.02907071 0.05328862 5.0823314 0.04375827 6.16750908 0.03393912 C9.72305764 0.01163224 13.27576535 0.04672923 16.83118436 0.08122966 C19.39801803 0.07702683 21.96484796 0.06931244 24.53166178 0.05837825 C30.12951422 0.04023 35.72669494 0.05189323 41.32448193 0.08289286 C49.65758228 0.12890603 57.99024222 0.12909159 66.32344199 0.11989064 C80.3860932 0.10569168 94.44845217 0.12908705 108.51103017 0.1735892 C122.5544554 0.21792124 136.5977567 0.24573566 150.64125249 0.25203845 C151.51897469 0.25244324 152.39669689 0.25284803 153.30101673 0.25326509 C157.76306232 0.25524522 162.22510797 0.25694663 166.6871537 0.25854776 C198.40454053 0.27049574 230.12176898 0.32028191 261.83907315 0.39154765 C292.21179234 0.45972476 322.58445074 0.50994958 352.95723721 0.53510234 C354.34279779 0.53626248 354.34279779 0.53626248 355.75634948 0.53744605 C364.12599561 0.54444997 372.49564189 0.55126997 380.86528834 0.55788653 C466.62671281 0.62592667 552.38818115 0.74852284 705.4433212 1.31220195 C706.49604796 1.31734351 707.54877472 1.32248508 708.63340229 1.32778245 C746.64773038 1.51443638 784.66132402 1.78993986 822.67525479 2.04999492 C822.67525479 72.66999492 822.67525479 143.28999492 822.67525479 216.04999492 C811.7258877 211.67024808 811.7258877 211.67024808 807.17916104 209.78827617 C766.23443311 192.99769416 724.05368576 182.07728498 680.17525479 176.73749492 C679.50818509 176.656002 678.84111539 176.57450908 678.15383145 176.49054667 C661.17224954 174.44856113 644.32271218 173.81065574 627.23775479 173.79999492 C626.2554791 173.79932017 625.2732034 173.79864543 624.26116177 173.79795024 C576.71148959 173.84940103 530.82981758 182.27386174 485.67525479 197.04999492 C484.7555087 197.34486796 483.8357626 197.63974101 482.88814542 197.9435496 C441.22834801 211.34449135 399.78360243 233.49787983 365.23775479 260.42499492 C363.77423249 261.55653038 362.31069064 262.68804055 360.84712979 263.81952617 C360.14007901 264.36818339 359.43302823 264.91684062 358.70455167 265.48212382 C356.87522974 266.89549069 355.03662324 268.29490306 353.19087979 269.68671367 C345.59006037 275.43130652 338.33088559 281.50212979 331.15279385 287.76337382 C329.95477569 288.80659188 328.74966562 289.84166184 327.54244229 290.87421367 C311.50849865 304.65229944 295.69914143 319.37028045 282.67525479 336.04999492 C281.74802028 337.19001527 280.81817139 338.32791252 279.88619229 339.46405742 C220.28276116 412.36468843 191.90229075 506.49041906 177.03462979 617.66327617 C176.76005813 620.25081563 176.41555143 622.56744842 175.67525479 625.04999492 C175.01525479 625.04999492 174.35525479 625.04999492 173.67525479 625.04999492 C172.00337979 623.27655742 172.00337979 623.27655742 169.92525479 620.67499492 C168.72449307 619.17259257 168.72449307 619.17259257 167.49947354 617.63983867 C166.55745001 616.44370997 165.61609304 615.24705614 164.67525479 614.04999492 C164.13723233 613.36953105 163.59920987 612.68906718 163.0448837 611.9879832 C155.76024469 602.76517247 148.65910396 593.4495824 141.92037198 583.82050273 C140.6334413 581.99053777 139.33179094 580.17181807 138.02681729 578.35468242 C128.57282715 565.14774967 119.62278878 551.60224045 110.67525479 538.04999492 C110.07535733 537.14313945 109.47545987 536.23628398 108.8573837 535.30194804 C95.55389013 515.15721593 82.93351776 494.59952011 71.09761807 473.55927226 C69.68209999 471.06207094 68.24345669 468.57978637 66.79634854 466.10077617 C58.91816341 452.56933086 51.67546369 438.73801713 44.58101651 424.78534648 C42.75835032 421.20445939 40.90643524 417.63909798 39.05416104 414.07343242 C22.28710394 381.5152266 8.10993399 347.68554724 -3.65665439 313.0138621 C-4.29726711 311.13076736 -4.94607873 309.25046784 -5.59525302 307.37030742 C-16.61492821 275.31955981 -23.77330239 242.43765716 -29.32474521 209.04999492 C-29.50231357 207.99248027 -29.67988193 206.93496562 -29.86283115 205.84540507 C-30.884827 199.59804332 -31.66670979 193.34549815 -32.32474521 187.04999492 C-32.52559726 185.18625224 -32.52559726 185.18625224 -32.73050693 183.2848582 C-36.46287205 147.90878069 -37.94601109 111.28573472 -32.32474521 76.04999492 C-32.06733554 74.4139329 -32.06733554 74.4139329 -31.80472568 72.74481913 C-28.359578 51.5905656 -23.20170163 30.33233879 -13.38611694 11.14014816 C-12.6865842 9.76256237 -12.02274809 8.36617713 -11.39857454 6.95284912 C-8.56255952 1.34421178 -6.21266328 0.12584225 0 0 Z " fill="#F15A23" transform="translate(709.324745208025,-1.0499949157238007)"/>
<path d="M0 0 C3.17903716 2.41930116 5.76430164 4.71780407 8.125 7.9375 C12.83954776 14.16598659 17.91755342 20.07237159 23 26 C23.77851318 26.91023926 23.77851318 26.91023926 24.57275391 27.83886719 C31.02039822 35.36864736 37.53769752 42.80241153 44.39428711 49.96484375 C48 53.78546668 48 53.78546668 48 56 C48.66 56 49.32 56 50 56 C51.34204102 57.36767578 51.34204102 57.36767578 52.94140625 59.3203125 C58.06281917 65.34597282 63.76160058 70.79380315 69.41235352 76.31640625 C70.82994803 77.70399001 72.24125905 79.09798418 73.65234375 80.4921875 C74.90519165 81.71977783 74.90519165 81.71977783 76.18334961 82.97216797 C78 85 78 85 78 87 C78.556875 87.226875 79.11375 87.45375 79.6875 87.6875 C82.61137746 89.34699802 84.67527652 91.61346703 87 94 C88.16169613 95.17553188 89.32453013 96.34993998 90.48828125 97.5234375 C91.10783691 98.14822998 91.72739258 98.77302246 92.36572266 99.41674805 C99.93844815 107.04528799 99.93844815 107.04528799 107.9375 114.21875 C110.16372061 116.14139508 112.31660736 118.13543736 114.4675293 120.14160156 C144.54128102 148.19094549 177.94639234 174.4677311 213 196 C214.28788812 196.80318069 215.57563725 197.60658426 216.86328125 198.41015625 C243.49098827 214.94282696 270.82474294 229.49653178 300 241 C300.94020996 241.37866211 301.88041992 241.75732422 302.84912109 242.14746094 C329.06433603 252.6190157 356.928582 259.02139654 384.75 263.5 C385.48093872 263.61806 386.21187744 263.73612 386.96496582 263.85775757 C391.9667096 264.65265174 396.97622689 265.35941717 402 266 C402.75811981 266.09711273 403.51623962 266.19422546 404.29733276 266.29428101 C418.38627607 268.03934798 432.37707476 268.36265076 446.5625 268.3125 C447.66283569 268.31034485 448.76317139 268.3081897 449.89685059 268.30596924 C466.43877093 268.254045 482.66533599 267.84994138 499 265 C500.23073242 264.78537109 501.46146484 264.57074219 502.72949219 264.34960938 C517.35002194 261.74787934 531.95282797 258.88697513 546 254 C546.99563965 253.65453125 547.9912793 253.3090625 549.01708984 252.953125 C581.79143407 241.44830912 611.9400528 225.913427 639 204 C639.54446777 203.55994629 640.08893555 203.11989258 640.64990234 202.66650391 C654.57924052 191.30448615 667.74416687 178.83110755 678.3125 164.24609375 C678.869375 163.50488281 679.42625 162.76367188 680 162 C680.33 162 680.66 162 681 162 C681 288.72 681 415.44 681 546 C508.74 546 336.48 546 159 546 C161.0459615 541.908077 162.35700985 540.665217 165.875 537.9375 C170.09786228 534.5812905 174.12213653 531.11963577 178.0625 527.4375 C182.3968788 523.4016839 186.86925559 519.63433464 191.5390625 515.9921875 C195.16721882 513.05510857 198.5630155 509.87768168 201.96875 506.6875 C204 505 204 505 206 505 C206 504.34 206 503.68 206 503 C207.55240341 501.60674046 209.17029985 500.28619872 210.8125 499 C214.83947294 495.78254658 218.71057012 492.49961778 222.5 489 C226.9698512 484.88621091 231.59044893 481.02912703 236.31640625 477.21484375 C238.94708557 475.04367173 241.47942424 472.79758643 244 470.5 C248.30907606 466.57334591 252.77349034 462.88501778 257.3046875 459.21875 C261.30498692 455.9257499 265.16109003 452.47871594 269 449 C268.00226563 449.2165625 267.00453125 449.433125 265.9765625 449.65625 C216.71567978 459.52716137 169.27716643 440.91669667 126 419 C125.15759766 418.5786377 124.31519531 418.15727539 123.44726562 417.72314453 C96.88131657 404.39970838 70.90929763 387.93430692 48 369 C47.07832031 368.2575 46.15664063 367.515 45.20703125 366.75 C38.2083223 361.09447761 31.38317193 355.23833732 24.57568359 349.35546875 C23.16853825 348.14498363 21.75096694 346.94664269 20.33203125 345.75 C19.60371094 345.13125 18.87539063 344.5125 18.125 343.875 C17.50882813 343.35679687 16.89265625 342.83859375 16.2578125 342.3046875 C15 341 15 341 15 339 C14.40427185 338.72893433 13.8085437 338.45786865 13.19476318 338.17858887 C11.02972331 337.01596143 9.6151363 335.86848412 7.88378906 334.14257812 C7.30348938 333.56858276 6.7231897 332.9945874 6.12530518 332.40319824 C5.51161072 331.78545532 4.89791626 331.1677124 4.265625 330.53125 C3.62759949 329.89513794 2.98957397 329.25902588 2.33221436 328.6036377 C0.98838426 327.26116613 -0.35293329 325.91617539 -1.69189453 324.56884766 C-3.74942465 322.50057835 -5.81744049 320.44322672 -7.88671875 318.38671875 C-9.19074625 317.08137029 -10.49415356 315.7754019 -11.796875 314.46875 C-12.41866638 313.85100708 -13.04045776 313.23326416 -13.68109131 312.59680176 C-18 308.22993073 -18 308.22993073 -18 306 C-18.99 305.67 -19.98 305.34 -21 305 C-22.5078125 303.46875 -22.5078125 303.46875 -24.125 301.5 C-26.79214921 298.34893765 -29.55564922 295.39410589 -32.5 292.5 C-35.82426543 289.21484357 -38.9463983 285.84219312 -41.98828125 282.296875 C-44.60280636 279.3117473 -47.30054146 276.4082244 -50 273.5 C-55.38438582 267.68756333 -60.62720539 261.7784699 -65.7734375 255.75390625 C-66.8072254 254.5442142 -67.84108147 253.3345804 -68.875 252.125 C-69.39489502 251.51624023 -69.91479004 250.90748047 -70.45043945 250.28027344 C-73.47931717 246.74318841 -76.55171743 243.25581992 -79.6875 239.8125 C-83.48189627 235.62980824 -87.06423823 231.30654198 -90.6171875 226.91796875 C-93.20756041 223.74582357 -95.84690728 220.61963623 -98.5 217.5 C-103.40574778 211.72478237 -108.21897165 205.8790222 -113 200 C-114.39510034 198.29106802 -115.79095208 196.58274921 -117.1875 194.875 C-117.92484375 193.97265625 -118.6621875 193.0703125 -119.421875 192.140625 C-121.38185366 189.74788306 -123.35351929 187.36505782 -125.328125 184.984375 C-131.9068972 177.04466374 -138.35323777 169.04579761 -144.59423828 160.83691406 C-148.1198983 156.22992101 -151.70073929 151.66521534 -155.26757812 147.09008789 C-155.83798828 146.35781982 -156.40839844 145.62555176 -156.99609375 144.87109375 C-157.50325928 144.22068115 -158.0104248 143.57026855 -158.53295898 142.90014648 C-159.01708252 142.27309814 -159.50120605 141.6460498 -160 141 C-160.55582764 140.29987793 -161.11165527 139.59975586 -161.68432617 138.87841797 C-163 137 -163 137 -163.0546875 135.07421875 C-161.44649644 131.91144301 -158.84301674 129.99168589 -156.125 127.8125 C-155.53928223 127.33055176 -154.95356445 126.84860352 -154.35009766 126.35205078 C-152.57344563 124.89291577 -150.78720039 123.4461816 -149 122 C-147.12497267 120.45836657 -145.24997046 118.91670259 -143.375 117.375 C-141.58380634 115.91608574 -139.79214249 114.45774856 -138 113 C-136.16620121 111.50056908 -134.33287057 110.00056542 -132.5 108.5 C-129.8210008 106.30774854 -127.14175792 104.11580532 -124.4609375 101.92578125 C-121.63876934 99.61944745 -118.81857069 97.31072763 -116 95 C-115.36255859 94.47744629 -114.72511719 93.95489258 -114.06835938 93.41650391 C-106.17775767 86.94391802 -98.312192 80.44680334 -90.53613281 73.83691406 C-85.41374447 69.488203 -80.21293019 65.23933881 -75 61 C-67.73975336 55.07303939 -60.49998637 49.12162516 -53.26806641 43.16015625 C-49.27110491 39.86633915 -45.26613121 36.58294603 -41.25 33.3125 C-37.29651669 30.08382196 -33.39078546 26.80356138 -29.5 23.5 C-19.8903348 15.34920924 -10.13783415 7.48395086 0 0 Z " fill="#F15A23" transform="translate(851,978)"/>
<path d="M0 0 C5.61970475 4.4957638 5.61970475 4.4957638 7.98046875 7.6875 C8.49947754 8.37996826 9.01848633 9.07243652 9.55322266 9.78588867 C10.09253418 10.51654541 10.6318457 11.24720215 11.1875 12 C15.82218589 18.17412451 20.57528006 24.16636882 25.5546875 30.06640625 C31.32725437 36.99164223 36.8071343 44.15780135 42.31640625 51.29296875 C48.12635632 58.80830667 53.98851278 66.25816701 60.0625 73.5625 C65.26524644 79.81911383 70.26184079 86.20068212 75.17163086 92.68896484 C79.41942572 98.28595287 83.81193175 103.7499583 88.26147461 109.18725586 C94.06009341 116.27738122 99.69838305 123.48914373 105.33398438 130.70898438 C110.6130503 137.4677301 115.94366949 144.1752877 121.375 150.8125 C126.42573214 156.98861009 131.3007171 163.27960782 136.12011719 169.63720703 C140.38968204 175.24984693 144.79859161 180.73524404 149.265625 186.19140625 C152.72769975 190.42283094 156.1365475 194.68982968 159.5 199 C163.45908137 204.07255037 167.4910772 209.07972404 171.5625 214.0625 C176.32872338 219.90060026 180.97617224 225.81180037 185.55078125 231.80078125 C192.60902132 241.04040094 199.87923646 250.10392707 207.23364258 259.10864258 C211.39396037 264.21720909 215.41179657 269.41677213 219.40625 274.65625 C222.36211063 278.49886881 225.43107807 282.2475131 228.5 286 C233.24855577 291.80623873 237.85853224 297.69106177 242.40625 303.65625 C245.36211063 307.49886881 248.43107807 311.2475131 251.5 315 C255.40905125 319.7797448 259.25632024 324.58945901 263 329.5 C266.72660502 334.38626168 270.55030478 339.17815581 274.4375 343.9375 C279.92567918 350.65703226 285.31732976 357.44450625 290.65722656 364.28222656 C292.93233902 367.19271588 295.21657719 370.09602916 297.5 373 C300.23096674 376.47314029 302.96027528 379.94748909 305.6796875 383.4296875 C310.57733265 389.69386906 315.53250012 395.90394625 320.5625 402.0625 C325.29248457 407.85372563 329.884667 413.72512052 334.41796875 419.671875 C337.30647544 423.4270464 340.31000414 427.08581667 343.3125 430.75 C347.81902165 436.25325821 352.20398885 441.83097668 356.5 447.5 C361.30117321 453.83378584 366.23097653 460.04194276 371.265625 466.19140625 C374.72769975 470.42283094 378.1365475 474.68982968 381.5 479 C385.45907894 484.07254725 389.49094836 489.07983191 393.5625 494.0625 C398.28850578 499.84854446 402.87668436 505.71487169 407.40625 511.65625 C410.36211201 515.49887061 413.43112564 519.24747212 416.5 523 C420.42612763 527.80176754 424.30182896 532.62990957 428.0625 537.5625 C432.11996062 542.88053091 436.26961923 548.1155001 440.45800781 553.33081055 C448.06794176 562.81141797 455.55223724 572.39162347 463 582 C459.37239108 590.62521908 449.27465979 596.43565841 442.04296875 602.04638672 C438.20982902 605.02503824 434.51743787 608.10650072 430.8984375 611.34375 C428.77541275 613.1959362 426.58613465 614.94149076 424.375 616.6875 C420.24033455 619.96235735 416.23495391 623.35938714 412.25 626.8125 C407.51731575 630.91010692 402.70024528 634.85579375 397.75 638.6875 C392.74370339 642.56365413 387.9997819 646.62307977 383.33203125 650.90625 C380.30682285 653.62235 377.14347501 656.13026815 373.953125 658.6484375 C364.33421405 666.30794067 354.89840096 674.20183304 345.53198242 682.16723633 C341.33692352 685.73017209 337.08094605 689.21318345 332.8125 692.6875 C329.68200149 695.26146545 326.58834366 697.87576903 323.5 700.5 C316.84966349 706.14857944 310.09878994 711.66823508 303.328125 717.171875 C298.32107643 721.25276429 293.35794562 725.3780369 288.4375 729.5625 C283.88844585 733.43112303 279.27493392 737.19777962 274.59375 740.90625 C271.51920651 743.38811041 268.50820956 745.93848513 265.5 748.5 C261.71102655 751.72634166 257.9014133 754.90926998 254 758 C249.54746299 761.52883403 245.21314021 765.18229329 240.88671875 768.86328125 C236.57037996 772.531156 232.1952084 776.12126321 227.80078125 779.6953125 C224.73224213 782.22033075 221.70960188 784.79484769 218.6875 787.375 C214.25148397 791.15792492 209.73399357 794.80532737 205.125 798.375 C199.38134635 802.82926201 193.8726598 807.50929095 188.40380859 812.29541016 C183.0358288 816.99011316 177.54584343 821.51683315 172 826 C170.16573302 827.49885816 168.33241048 828.99887277 166.5 830.5 C163.78924511 832.71998173 161.07689655 834.93764224 158.35546875 837.14453125 C153.14864113 841.37555516 148.01844068 845.68200133 142.9375 850.0625 C138.21734324 854.13195125 133.43502886 858.09055226 128.54296875 861.953125 C125.56400466 864.35093942 122.65671108 866.82826844 119.75 869.3125 C115.2936526 873.11749973 110.75821085 876.78789299 106.125 880.375 C100.38126264 884.82914667 94.87265247 889.50929736 89.40380859 894.29541016 C84.03589278 898.9900572 78.54737385 903.51878809 73 908 C67.11835672 912.77775715 61.27551723 917.59471962 55.5 922.5 C48.84951621 928.14840972 42.09879436 933.66823149 35.328125 939.171875 C30.93398945 942.75322247 26.56701723 946.35881081 22.25830078 950.04223633 C17.18011633 954.38032663 12.03871832 958.60756867 6.75 962.6875 C6.18877441 963.1218335 5.62754883 963.55616699 5.04931641 964.00366211 C1.12721596 967 1.12721596 967 0 967 C0 647.89 0 328.78 0 0 Z " fill="#F15A23" transform="translate(0,557)"/>
<path d="M0 0 C3.27709517 2.49283308 5.935349 4.92256855 8.4375 8.1875 C12.16258082 12.95279207 15.96473696 17.64558934 19.8125 22.3125 C20.41586182 23.04500977 21.01922363 23.77751953 21.64086914 24.53222656 C25.79860917 29.56982029 30.00399761 34.56441943 34.23754883 39.53833008 C37.54281661 43.4317456 40.73522157 47.40347641 43.90625 51.40625 C46.38811041 54.48079349 48.93848513 57.49179044 51.5 60.5 C54.72634166 64.28897345 57.90926998 68.0985867 61 72 C64.07312695 75.87754464 67.23270143 79.66902679 70.4375 83.4375 C75.36568756 89.23247974 80.20027384 95.09798592 85 101 C87.99599349 104.66995043 90.99639671 108.33627603 94 112 C94.52255371 112.63744141 95.04510742 113.27488281 95.58349609 113.93164062 C101.61487121 121.28437099 107.65429487 128.62792419 113.8125 135.875 C119.66488494 142.7626937 125.37817242 149.75850131 131.0625 156.78515625 C132.16643847 158.14862229 133.27061013 159.51189956 134.375 160.875 C134.93026367 161.56037842 135.48552734 162.24575684 136.05761719 162.9519043 C139.52757744 167.22266347 143.04996285 171.44199401 146.625 175.625 C150.34451833 179.97797049 153.92680738 184.41462553 157.4375 188.9375 C161.58375398 194.27408023 165.88990607 199.43665431 170.31274414 204.54541016 C176.68125604 211.91476093 182.82689679 219.46703451 189 227 C191.39411068 229.91808518 193.79005214 232.83465605 196.1875 235.75 C196.77039795 236.45914551 197.3532959 237.16829102 197.95385742 237.89892578 C201.49280638 242.19590057 205.07304833 246.4539663 208.6875 250.6875 C212.8628789 255.58028491 216.84669471 260.599383 220.79003906 265.68017578 C225.1421265 271.25327417 229.73582044 276.60336315 234.37109375 281.94140625 C241 289.62921259 241 289.62921259 241 292 C46.63 292 -147.74 292 -348 292 C-344.97462494 288.21828118 -342.79525677 285.83242897 -339.125 282.9375 C-334.67520578 279.37173156 -330.31523539 275.72733026 -326 272 C-321.01252218 267.70084535 -315.9609585 263.49703702 -310.84765625 259.34765625 C-307.50331282 256.59052264 -304.21925899 253.7685453 -300.9375 250.9375 C-296.24450455 246.8904222 -291.48482274 242.96256115 -286.62109375 239.12109375 C-283.37930309 236.49770727 -280.22055907 233.78565237 -277.0625 231.0625 C-271.12065566 225.94090492 -265.08647879 220.94918572 -259 216 C-250.21453542 208.8223476 -241.47689493 201.5997505 -232.88745117 194.18823242 C-228.60108596 190.49556373 -224.23638289 186.90953434 -219.84375 183.34375 C-216.52313514 180.60697951 -213.25953218 177.8089705 -210 175 C-205.00703559 170.69720778 -199.95133342 166.48834365 -194.83203125 162.3359375 C-191.57328631 159.64803478 -188.38101973 156.88969702 -185.1875 154.125 C-180.49720781 150.06759143 -175.71930481 146.16729573 -170.8125 142.375 C-165.52196533 138.28240503 -160.55323331 133.9516972 -155.64453125 129.40234375 C-151.25154998 125.41167391 -146.62270471 121.71926599 -142 118 C-135.28047579 112.56085781 -128.66820668 107.01683601 -122.12182617 101.37182617 C-118.03025952 97.85427846 -113.85560263 94.46559091 -109.62109375 91.12109375 C-106.37930497 88.49770879 -103.22052162 85.78569385 -100.0625 83.0625 C-93.26578074 77.2026283 -86.34025826 71.51599556 -79.3671875 65.8671875 C-73.70516996 61.26163971 -68.14027227 56.55993641 -62.61401367 51.79370117 C-57.25523267 47.1869283 -51.80007665 42.70290222 -46.33325195 38.2253418 C-41.09722465 33.92769622 -35.94310022 29.54426551 -30.81640625 25.1171875 C-26.84008347 21.69313177 -22.77741066 18.40119207 -18.65625 15.15234375 C-14.5729533 11.84367245 -10.60826235 8.39779786 -6.64453125 4.94726562 C-2.20818156 1.10409078 -2.20818156 1.10409078 0 0 Z " fill="#F15A23" transform="translate(534,1232)"/>
</svg>
