<svg xmlns="http://www.w3.org/2000/svg" xmlns:xlink="http://www.w3.org/1999/xlink" viewBox="0 0 2108.66 2108.66">
  <defs>
    <style>
      .cls-1 {
        isolation: isolate;
      }

      .cls-2 {
        fill: #fff;
      }

      .cls-3 {
        fill: #001e38;
      }

      .cls-4 {
        fill: url(#linear-gradient);
      }

      .cls-5 {
        fill: url(#linear-gradient-2);
      }

      .cls-6 {
        fill: url(#linear-gradient-3);
      }

      .cls-7 {
        fill: url(#linear-gradient-4);
      }

      .cls-8 {
        fill: url(#linear-gradient-5);
      }

      .cls-9 {
        fill: url(#linear-gradient-6);
      }

      .cls-10 {
        fill: url(#linear-gradient-7);
      }

      .cls-11 {
        fill: url(#linear-gradient-8);
      }

      .cls-12 {
        fill: url(#linear-gradient-9);
      }

      .cls-13 {
        fill: url(#linear-gradient-10);
      }

      .cls-14 {
        fill: url(#linear-gradient-11);
      }

      .cls-15 {
        fill: url(#linear-gradient-12);
      }

      .cls-16 {
        mix-blend-mode: multiply;
      }
    </style>
    <linearGradient id="linear-gradient" x1="713.21" y1="1391.31" x2="673.09" y2="1335.91" gradientUnits="userSpaceOnUse">
      <stop offset="0" stop-color="#fe7a18"/>
      <stop offset="0.33" stop-color="#fe9215"/>
      <stop offset="1" stop-color="#ffcc0f"/>
    </linearGradient>
    <linearGradient id="linear-gradient-2" x1="1184.09" y1="1525.65" x2="1094.3" y2="1539.02" gradientUnits="userSpaceOnUse">
      <stop offset="0" stop-color="#ff260d"/>
      <stop offset="0.14" stop-color="#fe3e0e"/>
      <stop offset="0.4" stop-color="#fd6410"/>
      <stop offset="0.63" stop-color="#fd7f11"/>
      <stop offset="0.84" stop-color="#fc8f12"/>
      <stop offset="1" stop-color="#fc9512"/>
    </linearGradient>
    <linearGradient id="linear-gradient-3" x1="1523.25" y1="1195.46" x2="1483.13" y2="1289.07" gradientUnits="userSpaceOnUse">
      <stop offset="0" stop-color="#006f67"/>
      <stop offset="0.07" stop-color="#00766b"/>
      <stop offset="0.7" stop-color="#00b393"/>
      <stop offset="1" stop-color="#00cba2"/>
    </linearGradient>
    <linearGradient id="linear-gradient-4" x1="1384.18" y1="717.01" x2="1452.96" y2="812.53" xlink:href="#linear-gradient"/>
    <linearGradient id="linear-gradient-5" x1="604.33" y1="929.2" x2="632.99" y2="854.69" xlink:href="#linear-gradient-3"/>
    <linearGradient id="linear-gradient-6" x1="945.38" y1="599.34" x2="1023.7" y2="587.88" xlink:href="#linear-gradient-2"/>
    <linearGradient id="linear-gradient-7" x1="1516.93" y1="912.21" x2="1536.04" y2="1007.73" xlink:href="#linear-gradient-2"/>
    <linearGradient id="linear-gradient-8" x1="607.55" y1="1214.84" x2="594.18" y2="1146.06" xlink:href="#linear-gradient-2"/>
    <linearGradient id="linear-gradient-9" x1="1157.19" y1="592.91" x2="1337.73" y2="655.96" xlink:href="#linear-gradient-3"/>
    <linearGradient id="linear-gradient-10" x1="963.11" y1="1532.75" x2="873.32" y2="1500.27" xlink:href="#linear-gradient-3"/>
    <linearGradient id="linear-gradient-11" x1="1422.22" y1="1378.52" x2="1336.25" y2="1456.85" xlink:href="#linear-gradient"/>
    <linearGradient id="linear-gradient-12" x1="714.76" y1="737" x2="772.07" y2="683.5" xlink:href="#linear-gradient"/>
  </defs>
  <title>SPINNER</title>
  <g class="cls-1">
    <g id="Layer_1" data-name="Layer 1">
      <g>
        <circle class="cls-2" cx="1054.33" cy="1054.33" r="1054.33"/>
        <path class="cls-3" d="M2094.73,1062.88c0,570.07-462.1,1032.17-1032.17,1032.17S30.39,1633,30.39,1062.88c0-554.3,436.92-1006.5,985.06-1031.06,15.67-.71,31.34-1.12,47.11-1.12,17.69,0,35.28.41,52.87,1.32C1660.94,59.52,2094.73,510.5,2094.73,1062.88Z" transform="translate(-8.23 -8.55)"/>
        <path class="cls-4" d="M370.42,1715.21l692.14-652.33L151.33,1336.19A949.93,949.93,0,0,0,370.42,1715.21Z" transform="translate(-8.23 -8.55)"/>
        <path class="cls-5" d="M1062.57,2014a954,954,0,0,0,218.9-25.35l-218.91-925.79L843.64,1988.66A953.77,953.77,0,0,0,1062.57,2014Z" transform="translate(-8.23 -8.55)"/>
        <path class="cls-6" d="M1973.79,1336.19l-911.23-273.31,692.14,652.33A950.18,950.18,0,0,0,1973.79,1336.19Z" transform="translate(-8.23 -8.55)"/>
        <path class="cls-7" d="M1754.7,410.55l-711.87,667.64,931-288.63A950.08,950.08,0,0,0,1754.7,410.55Z" transform="translate(-8.23 -8.55)"/>
        <path class="cls-8" d="M151.33,789.56l911.23,273.32L370.42,410.54A950.06,950.06,0,0,0,151.33,789.56Z" transform="translate(-8.23 -8.55)"/>
        <path class="cls-9" d="M1062.57,111.73a953.62,953.62,0,0,0-218.92,25.36l218.91,925.79,218.91-925.79A953.45,953.45,0,0,0,1062.57,111.73Z" transform="translate(-8.23 -8.55)"/>
        <path class="cls-10" d="M2013.72,1067.12a979.84,979.84,0,0,0-39.93-277.56l-911.23,277.56,911.23,277.56A979.79,979.79,0,0,0,2013.72,1067.12Z" transform="translate(-8.23 -8.55)"/>
        <path class="cls-11" d="M111.4,1062.88a951.06,951.06,0,0,0,39.93,273.31l911.23-273.31L151.33,789.56A951.18,951.18,0,0,0,111.4,1062.88Z" transform="translate(-8.23 -8.55)"/>
        <path class="cls-12" d="M1200.1,122q40.19,5.92,79.25,15.08l-219.89,925.79L1754.7,410.55C1610.86,258.67,1417.4,153.93,1200.1,122Z" transform="translate(-8.23 -8.55)"/>
        <path class="cls-13" d="M922.53,2003.74q-40-5.91-78.89-15.08l218.92-925.78L370.42,1715.21C513.6,1867.08,706.2,1971.81,922.53,2003.74Z" transform="translate(-8.23 -8.55)"/>
        <path class="cls-14" d="M1062.56,1062.88l218.91,925.79q-38.84,9.15-78.87,15.07c216.31-31.92,408.91-136.66,552.1-288.53Z" transform="translate(-8.23 -8.55)"/>
        <path class="cls-15" d="M922.55,122c-225.41,33.26-425,145.58-569.87,307.89q8.74-9.79,17.74-19.36l692.14,652.34L843.65,137.09Q882.5,127.94,922.55,122Z" transform="translate(-8.23 -8.55)"/>
        <g>
          <path class="cls-3" d="M1036.25,1756.8H1021.4v-51.56h11.73l23.18,24.79a24,24,0,0,0,5.81,4.82,10.76,10.76,0,0,0,4.88,1.23,6.14,6.14,0,0,0,5-2.17c1.2-1.45,1.79-3.57,1.79-6.34a14,14,0,0,0-1.65-6.76,13.46,13.46,0,0,0-4.77-5.07l7.76-13.91a27.19,27.19,0,0,1,10.11,10.88,35.07,35.07,0,0,1,3.7,16.56,34.12,34.12,0,0,1-2.46,13.38,20.92,20.92,0,0,1-7,9.09,17.93,17.93,0,0,1-10.64,3.26,23.08,23.08,0,0,1-10.18-2.32q-4.77-2.33-10.83-8.94l-11.54-12.49Z" transform="translate(-8.23 -8.55)"/>
          <path class="cls-3" d="M1024.14,1776.29a27.39,27.39,0,0,1,11.87-10.36,47.6,47.6,0,0,1,37,0,27.41,27.41,0,0,1,11.88,10.36,30,30,0,0,1,0,30.18,27.41,27.41,0,0,1-11.88,10.36,47.72,47.72,0,0,1-37,0,27.39,27.39,0,0,1-11.87-10.36,30.07,30.07,0,0,1,0-30.18ZM1040,1799c3,1.85,7.9,2.79,14.52,2.79s11.46-.94,14.52-2.79,4.58-4.38,4.58-7.53-1.53-5.75-4.58-7.61-7.9-2.79-14.52-2.79-11.47.93-14.52,2.79-4.59,4.39-4.59,7.61S1036.93,1797.08,1040,1799Z" transform="translate(-8.23 -8.55)"/>
          <path class="cls-3" d="M1027.88,1877.37q-5.73-5.62-7.33-16.32h-10.5V1849.7h10.12a59.21,59.21,0,0,1,2.41-13.44,39.16,39.16,0,0,1,4.77-10.5l13.81,6.15a40.16,40.16,0,0,0-4.72,10.32,39.21,39.21,0,0,0-1.8,11.54q0,10.79,5.4,10.78c1.88,0,3.29-1,4.2-3.07a57.43,57.43,0,0,0,2.89-9.88,93.22,93.22,0,0,1,3.45-12.49,21,21,0,0,1,5.92-8.61q4.05-3.6,11-3.6a18.93,18.93,0,0,1,14,5.87q5.82,5.87,7.14,16.93H1099v11.35h-10.22a55.14,55.14,0,0,1-1.89,10.36,38.26,38.26,0,0,1-3.69,8.85l-13.91-5.78q5.12-9.45,5.12-18.35c0-3.72-.56-6.43-1.66-8.14a5,5,0,0,0-4.31-2.54c-1.77,0-3.09,1-4,3a54.71,54.71,0,0,0-2.74,9.74,90.72,90.72,0,0,1-3.46,12.54,21.66,21.66,0,0,1-5.86,8.61q-4,3.65-10.93,3.64A18.72,18.72,0,0,1,1027.88,1877.37Z" transform="translate(-8.23 -8.55)"/>
        </g>
        <g>
          <path class="cls-3" d="M1037.11,372.46h66.22v18.73h-51.74v12.3h-14.48Z" transform="translate(-8.23 -8.55)"/>
          <path class="cls-3" d="M1100.59,348.43a27.39,27.39,0,0,1-11.87,10.36,47.72,47.72,0,0,1-37,0,27.41,27.41,0,0,1-11.88-10.36,30,30,0,0,1,0-30.18,27.41,27.41,0,0,1,11.88-10.36,47.6,47.6,0,0,1,37,0,27.39,27.39,0,0,1,11.87,10.36,30.07,30.07,0,0,1,0,30.18Zm-15.85-22.66c-3-1.86-7.9-2.79-14.52-2.79s-11.46.93-14.52,2.79-4.58,4.37-4.58,7.51,1.53,5.76,4.58,7.63,7.9,2.79,14.52,2.79,11.47-.94,14.52-2.79,4.59-4.41,4.59-7.63S1087.8,327.63,1084.74,325.77Z" transform="translate(-8.23 -8.55)"/>
          <path class="cls-3" d="M1096.85,247.34q5.73,5.64,7.33,16.32h10.5V275h-10.12a58.93,58.93,0,0,1-2.41,13.42,39.09,39.09,0,0,1-4.77,10.51l-13.81-6.15a39.93,39.93,0,0,0,4.72-10.31,39.21,39.21,0,0,0,1.8-11.54q0-10.8-5.4-10.79c-1.88,0-3.29,1-4.2,3.08a56.6,56.6,0,0,0-2.89,9.88,94.08,94.08,0,0,1-3.45,12.49,21,21,0,0,1-5.92,8.61q-4.05,3.6-11,3.59a19,19,0,0,1-14-5.86q-5.82-5.86-7.14-16.93h-10.41V263.66H1036a55.29,55.29,0,0,1,1.89-10.36,38.45,38.45,0,0,1,3.69-8.85l13.91,5.78q-5.12,9.47-5.11,18.35c0,3.72.55,6.44,1.65,8.14a5,5,0,0,0,4.31,2.55c1.77,0,3.09-1,4-3a54.2,54.2,0,0,0,2.74-9.74,90.54,90.54,0,0,1,3.46-12.53,21.59,21.59,0,0,1,5.86-8.61q4-3.65,10.93-3.64A18.71,18.71,0,0,1,1096.85,247.34Z" transform="translate(-8.23 -8.55)"/>
        </g>
        <g>
          <path class="cls-3" d="M1734.36,707.41l7.38,12.89L1697,745.93l-5.83-10.17,10-32.44a23.39,23.39,0,0,0,1.3-7.45,10.76,10.76,0,0,0-1.36-4.84,6.13,6.13,0,0,0-4.38-3.26c-1.85-.32-4,.2-6.39,1.59a13.9,13.9,0,0,0-5,4.79,13.49,13.49,0,0,0-2,6.67l-15.92.18a27.22,27.22,0,0,1,4.4-14.19,34.93,34.93,0,0,1,12.53-11.43,34,34,0,0,1,12.84-4.52,20.84,20.84,0,0,1,11.39,1.59,17.84,17.84,0,0,1,8.11,7.62,23.05,23.05,0,0,1,3.05,10c.25,3.52-.54,8.14-2.38,13.83l-5.08,16.24Z" transform="translate(-8.23 -8.55)"/>
          <path class="cls-3" d="M1787,686.91q-2,7.76-10.51,14.46l5.22,9.11-9.85,5.65-5-8.78a58,58,0,0,1-12.85,4.57,37.86,37.86,0,0,1-11.49,1.08l-1.53-15a40.09,40.09,0,0,0,11.3-1,38.63,38.63,0,0,0,10.91-4.18q9.35-5.35,6.67-10-1.39-2.44-4.76-2.12a57.15,57.15,0,0,0-10,2.42,96,96,0,0,1-12.55,3.21,21.09,21.09,0,0,1-10.41-.85c-3.44-1.17-6.29-3.74-8.58-7.74a18.91,18.91,0,0,1-1.84-15q2.19-8,11.13-14.62l-5.17-9,9.85-5.65,5.09,8.87a54.67,54.67,0,0,1,9.93-3.5,37.27,37.27,0,0,1,9.5-1.19l1.91,14.92q-10.76.27-18.46,4.7c-3.23,1.85-5.31,3.68-6.24,5.47a5,5,0,0,0-.08,5c.88,1.53,2.41,2.19,4.6,1.94a53.72,53.72,0,0,0,9.82-2.46,90.06,90.06,0,0,1,12.59-3.23,21.55,21.55,0,0,1,10.4.8c3.42,1.12,6.3,3.68,8.59,7.68A18.75,18.75,0,0,1,1787,686.91Z" transform="translate(-8.23 -8.55)"/>
        </g>
        <g>
          <path class="cls-3" d="M470.23,1430.74l-32.93-57.46,16.26-9.32,25.73,44.91,10.67-6.11,7.19,12.56Z" transform="translate(-8.23 -8.55)"/>
          <path class="cls-3" d="M407.44,1432.37q-8.61-1.61-13.32-9.81a21.22,21.22,0,0,1-2.86-11.39,22.13,22.13,0,0,1,4.27-11.94q4.11-5.88,12.39-10.63a57.46,57.46,0,0,1,12.87-5.42,39.48,39.48,0,0,1,12.61-1.66l1.19,15.57a32.17,32.17,0,0,0-9.62.82,33.31,33.31,0,0,0-9,3.54,14.16,14.16,0,0,0-5.78,5.43,5.82,5.82,0,0,0,.06,5.9,5.51,5.51,0,0,0,5,3c2.21,0,5.39-1.12,9.55-3.51l15.59-8.93,16.36,35.21-36.6,21-7.19-12.56L436,1433.66l-4.06-8.8-3.86,2.21Q416.05,1434,407.44,1432.37Z" transform="translate(-8.23 -8.55)"/>
          <path class="cls-3" d="M338.38,1437.43q2-7.76,10.51-14.47l-5.22-9.11,9.85-5.65,5,8.78a59.66,59.66,0,0,1,12.86-4.57,38.81,38.81,0,0,1,11.49-1.08l1.53,15a40,40,0,0,0-11.3,1,39.12,39.12,0,0,0-10.91,4.18q-9.36,5.36-6.67,10c.94,1.64,2.52,2.34,4.75,2.12a55.19,55.19,0,0,0,10-2.41,94.44,94.44,0,0,1,12.55-3.21,21.16,21.16,0,0,1,10.4.84c3.44,1.18,6.29,3.75,8.58,7.75a18.91,18.91,0,0,1,1.85,15q-2.19,8-11.14,14.61l5.17,9-9.85,5.64-5.07-8.86a55.48,55.48,0,0,1-9.93,3.5,38,38,0,0,1-9.51,1.2l-1.91-14.93a38.59,38.59,0,0,0,18.46-4.7c3.23-1.85,5.3-3.68,6.24-5.48a5,5,0,0,0,.07-5c-.88-1.54-2.41-2.2-4.6-2a56.63,56.63,0,0,0-9.82,2.47,93.94,93.94,0,0,1-12.59,3.24,21.89,21.89,0,0,1-10.39-.81q-5.15-1.7-8.59-7.67A18.74,18.74,0,0,1,338.38,1437.43Z" transform="translate(-8.23 -8.55)"/>
        </g>
        <g>
          <path class="cls-3" d="M1726.61,1422.17l-33.49,57.13-16.17-9.47,26.17-44.65-10.61-6.22,7.32-12.49Z" transform="translate(-8.23 -8.55)"/>
          <path class="cls-3" d="M1748.42,1504.2q-7.74,2.08-17.77-1.91l-5.31,9-9.81-5.74,5.13-8.73a59.74,59.74,0,0,1-10.38-8.88,38.93,38.93,0,0,1-6.64-9.44l12.29-8.8a39.4,39.4,0,0,0,6.51,9.3,38.9,38.9,0,0,0,9,7.38q9.3,5.46,12,.81c1-1.64.78-3.36-.52-5.19a55.27,55.27,0,0,0-7.07-7.49,95.77,95.77,0,0,1-9-9.29,21.37,21.37,0,0,1-4.44-9.46q-1-5.32,2.45-11.29a19,19,0,0,1,12.12-9.07q8-2,18.22,2.41l5.26-9,9.81,5.74-5.18,8.82a54.81,54.81,0,0,1,8,6.86,38.09,38.09,0,0,1,5.77,7.66l-12,9.08q-5.56-9.19-13.25-13.69c-3.21-1.88-5.82-2.77-7.85-2.69a5,5,0,0,0-4.38,2.42c-.9,1.53-.69,3.19.6,5a55,55,0,0,0,7,7.28,94.25,94.25,0,0,1,9.08,9.33,21.66,21.66,0,0,1,4.46,9.41c.73,3.55-.06,7.3-2.39,11.28A18.71,18.71,0,0,1,1748.42,1504.2Z" transform="translate(-8.23 -8.55)"/>
        </g>
        <g>
          <path class="cls-3" d="M398.87,702.46l33.49-57.14,16.16,9.48-26.16,44.65L433,705.67l-7.32,12.48Z" transform="translate(-8.23 -8.55)"/>
          <path class="cls-3" d="M377.05,620.43c5.17-1.4,11.11-.75,17.78,1.92l5.31-9.06,9.8,5.74-5.12,8.73a58.88,58.88,0,0,1,10.37,8.88,38.68,38.68,0,0,1,6.65,9.43l-12.29,8.81a39.4,39.4,0,0,0-6.51-9.3A38.9,38.9,0,0,0,394,638.2q-9.3-5.46-12-.8c-1,1.63-.78,3.35.51,5.18a56.78,56.78,0,0,0,7.08,7.49,94.35,94.35,0,0,1,9,9.29,21.28,21.28,0,0,1,4.45,9.46q1,5.32-2.45,11.29a19,19,0,0,1-12.12,9.07q-8,2.05-18.22-2.41l-5.26,9-9.8-5.74,5.17-8.82a54.21,54.21,0,0,1-8-6.86,38.47,38.47,0,0,1-5.77-7.66l12-9.08c3.72,6.14,8.12,10.69,13.25,13.69,3.21,1.89,5.82,2.77,7.85,2.68a4.94,4.94,0,0,0,4.38-2.41c.9-1.52.69-3.19-.6-5a56.21,56.21,0,0,0-7-7.29,93,93,0,0,1-9.07-9.31,21.71,21.71,0,0,1-4.47-9.42q-1.11-5.32,2.39-11.27A18.75,18.75,0,0,1,377.05,620.43Z" transform="translate(-8.23 -8.55)"/>
        </g>
        <g class="cls-16">
          <g>
            <path class="cls-3" d="M1389.16,549.87l12.84,7.44-29.73,51.32-10.15-5.89L1344.57,554l-16.31,28.15-12.86-7.45,28.6-49.36,10.14,5.88L1371.7,580Z" transform="translate(-8.23 -8.55)"/>
            <path class="cls-3" d="M1420.27,496.93l12.53,7.26-26.67,46L1348.84,517l26-44.93,12.52,7.26-16.74,28.89,9.65,5.59,14.75-25.45,12.12,7-14.75,25.45,10.48,6.08Z" transform="translate(-8.23 -8.55)"/>
            <path class="cls-3" d="M1437.31,461.32l-5.13,8.84,15.23,8.82-9.4,16.21L1380.72,462l15.17-26.19a37.88,37.88,0,0,1,10.41-12,23,23,0,0,1,12.5-4.56A25.16,25.16,0,0,1,1441,431.81a22.81,22.81,0,0,1,2.43,12.51l25.16-1.92-10,17.35Zm-22.64-23.4q-3.69,1.26-6.58,6.25l-5.21,9,16.79,9.72,5.21-9q2.88-5,2.19-8.79a8.86,8.86,0,0,0-4.71-6.12A9,9,0,0,0,1414.67,437.92Z" transform="translate(-8.23 -8.55)"/>
            <path class="cls-3" d="M1477.7,420.49a33.85,33.85,0,0,1-51.9-30.07,42.25,42.25,0,0,1,18.92-32.66,33.87,33.87,0,0,1,51.9,30.07,42.32,42.32,0,0,1-18.92,32.66Zm2.38-30.92a17,17,0,0,0-2.54-8.92,21.86,21.86,0,0,0-17.1-9.91,17.16,17.16,0,0,0-9,2.22,18.68,18.68,0,0,0-9.1,15.72,16.83,16.83,0,0,0,2.55,8.9,21.79,21.79,0,0,0,17.1,9.92,17,17,0,0,0,9-2.21,17.81,17.81,0,0,0,6.61-6.68A17.53,17.53,0,0,0,1480.08,389.57Z" transform="translate(-8.23 -8.55)"/>
          </g>
          <g>
            <path class="cls-3" d="M849.08,1350.3a24.14,24.14,0,0,1,11.15-4.8l5.35,14.91q-8.61,1.13-11.71,6.44a7.71,7.71,0,0,0-1,6.6c.7,2,2.42,3.86,5.15,5.44l24.64,14.29,11.47-19.82,12.53,7.26-20.78,35.86-36.18-21q-11.15-6.46-13.45-15.29t4-19.71A33.79,33.79,0,0,1,849.08,1350.3Z" transform="translate(-8.23 -8.55)"/>
            <path class="cls-3" d="M811.86,1437.85l14-24.24-8.52-10.95,9.58-16.53,42.65,58.5-9.25,16-72-7.83,9.77-16.87Zm14.7,2.17,22.6,3.27-14.07-18Z" transform="translate(-8.23 -8.55)"/>
            <path class="cls-3" d="M781.63,1470.46a32.88,32.88,0,0,1,17.12-5.11,35.82,35.82,0,0,1,30.78,17.83,32.9,32.9,0,0,1,4.07,17.4,39.17,39.17,0,0,1-5.55,18.38,40.45,40.45,0,0,1-11,12.55,31.57,31.57,0,0,1-14.09,5.82l-3.35-15.71q9.93-1.69,14.54-9.63a19.45,19.45,0,0,0,2.77-9.49,16.35,16.35,0,0,0-2.51-9,22.19,22.19,0,0,0-17.1-9.91,16.33,16.33,0,0,0-9,2.3,19.27,19.27,0,0,0-6.86,7.12q-4.6,7.93-1.12,17.39L765,1515.32A31.33,31.33,0,0,1,763,1500.2a40,40,0,0,1,5.42-15.77A39.24,39.24,0,0,1,781.63,1470.46Z" transform="translate(-8.23 -8.55)"/>
            <path class="cls-3" d="M759.14,1551.08l-3-9.81-14.32-8.3,9.3-16,57.3,33.2-9.3,16-23.82-13.8,11,36L776,1606.2l-11.82-38.11L718,1574.22l10.91-18.83Z" transform="translate(-8.23 -8.55)"/>
            <path class="cls-3" d="M747.19,1649.88a23,23,0,0,1-12.49,4.57,23.32,23.32,0,0,1-24.67-26.1,37.78,37.78,0,0,1,5.25-15l5.79-10-15-8.68,9.39-16.21,57.3,33.21-15.18,26.2A37.71,37.71,0,0,1,747.19,1649.88Zm-20.77-21.32a10.22,10.22,0,0,0,12.4,7.18q3.69-1.26,6.57-6.25l5.23-9-16.79-9.73-5.22,9C726.69,1623.1,726,1626,726.42,1628.56Z" transform="translate(-8.23 -8.55)"/>
            <path class="cls-3" d="M675.94,1652.93a33.87,33.87,0,0,1,51.9,30.07,42.37,42.37,0,0,1-18.93,32.66A33.85,33.85,0,0,1,657,1685.59a42.25,42.25,0,0,1,18.92-32.66Zm-2.4,30.92a17.05,17.05,0,0,0,2.56,8.92,21.82,21.82,0,0,0,17.1,9.91,17.06,17.06,0,0,0,9-2.22,18.66,18.66,0,0,0,9.11-15.72,17,17,0,0,0-2.54-8.9,21.84,21.84,0,0,0-17.1-9.92,17.06,17.06,0,0,0-9,2.22,18.62,18.62,0,0,0-9.11,15.71Z" transform="translate(-8.23 -8.55)"/>
            <path class="cls-3" d="M678.23,1745.18l10.21-17.59,12.85,7.44-29.74,51.32-12.86-7.45,10.15-17.51-44.43-25.76,9.38-16.21Z" transform="translate(-8.23 -8.55)"/>
          </g>
          <g>
            <path class="cls-3" d="M1750.31,1070.38q6.63,5.71,6.58,15.17a21.13,21.13,0,0,1-3.22,11.29A22,22,0,0,1,1744,1105q-6.51,3-16.06,3a57.06,57.06,0,0,1-13.85-1.78,39.44,39.44,0,0,1-11.76-4.87l6.79-14.07a31.82,31.82,0,0,0,8.73,4.11,33.09,33.09,0,0,0,9.6,1.46,14.13,14.13,0,0,0,7.72-1.8,5.79,5.79,0,0,0,2.91-5.14,5.48,5.48,0,0,0-2.81-5c-1.9-1.15-5.23-1.73-10-1.75l-18-.09,3.51-38.68,42.18.21-.07,14.48-26.67-.14-.9,9.65,4.44,0Q1743.66,1064.67,1750.31,1070.38Z" transform="translate(-8.23 -8.55)"/>
            <path class="cls-3" d="M1776.29,1104.19a27.49,27.49,0,0,1-10.3-11.93,47.66,47.66,0,0,1,.19-37,27.31,27.31,0,0,1,10.42-11.82,30,30,0,0,1,30.18.15,27.35,27.35,0,0,1,10.29,11.93,47.6,47.6,0,0,1-.18,37,27.37,27.37,0,0,1-10.42,11.82,30,30,0,0,1-30.18-.15Zm22.74-15.74c1.87-3,2.83-7.89,2.86-14.51s-.87-11.46-2.72-14.53-4.35-4.61-7.5-4.62-5.75,1.5-7.63,4.55-2.83,7.89-2.87,14.5.88,11.47,2.72,14.54,4.38,4.61,7.59,4.62S1797.15,1091.5,1799,1088.45Z" transform="translate(-8.23 -8.55)"/>
            <path class="cls-3" d="M1877.39,1101q-5.66,5.68-16.36,7.25l0,10.5-11.36-.06,0-10.12a59,59,0,0,1-13.42-2.47,39.47,39.47,0,0,1-10.48-4.83l6.22-13.78a39.68,39.68,0,0,0,10.29,4.77,38.94,38.94,0,0,0,11.53,1.86c7.2,0,10.8-1.75,10.82-5.34,0-1.9-1-3.3-3.06-4.23a58.86,58.86,0,0,0-9.86-2.93,93.69,93.69,0,0,1-12.48-3.51,21.12,21.12,0,0,1-8.58-6q-3.57-4.08-3.55-11a19,19,0,0,1,6-13.93q5.89-5.78,17-7l.06-10.41,11.35.06-.06,10.22a54.52,54.52,0,0,1,10.36,1.93,38.5,38.5,0,0,1,8.82,3.73l-5.84,13.89q-9.43-5.16-18.32-5.2c-3.73,0-6.44.52-8.15,1.61a5,5,0,0,0-2.58,4.3q0,2.64,3,4a55.69,55.69,0,0,0,9.72,2.8,91.21,91.21,0,0,1,12.52,3.5,21.74,21.74,0,0,1,8.58,5.92q3.63,4,3.59,10.94A18.69,18.69,0,0,1,1877.39,1101Z" transform="translate(-8.23 -8.55)"/>
          </g>
          <g>
            <path class="cls-3" d="M437.35,1084.62l.33-66.22,18.74.09-.26,51.74,12.29.06-.07,14.48Z" transform="translate(-8.23 -8.55)"/>
            <path class="cls-3" d="M413.64,1021a27.25,27.25,0,0,1,10.29,11.92,47.66,47.66,0,0,1-.17,37,27.46,27.46,0,0,1-10.42,11.83,28.43,28.43,0,0,1-15.16,4,28.15,28.15,0,0,1-15-4.15,27.2,27.2,0,0,1-10.29-11.92,47.54,47.54,0,0,1,.17-37,27.46,27.46,0,0,1,10.42-11.83,30.07,30.07,0,0,1,30.18.16Zm-22.74,15.73q-2.81,4.57-2.86,14.51c0,6.62.88,11.46,2.71,14.53s4.36,4.62,7.51,4.63,5.75-1.51,7.63-4.55,2.83-7.88,2.87-14.51-.88-11.47-2.72-14.53-4.38-4.61-7.59-4.63S392.78,1033.7,390.9,1036.75Z" transform="translate(-8.23 -8.55)"/>
            <path class="cls-3" d="M348.83,1020.7a27.27,27.27,0,0,1,10.3,11.92,47.74,47.74,0,0,1-.18,37,27.33,27.33,0,0,1-10.41,11.81,30,30,0,0,1-30.18-.14,27.39,27.39,0,0,1-10.3-11.92,47.6,47.6,0,0,1,.18-37,27.29,27.29,0,0,1,10.42-11.83,30,30,0,0,1,30.17.15Zm-22.73,15.73q-2.82,4.58-2.86,14.52t2.71,14.53c1.85,3.06,4.35,4.61,7.5,4.62s5.76-1.5,7.64-4.55,2.83-7.89,2.87-14.51-.88-11.47-2.73-14.54-4.37-4.61-7.59-4.62S328,1033.38,326.1,1036.43Z" transform="translate(-8.23 -8.55)"/>
            <path class="cls-3" d="M247.73,1023.94q5.66-5.7,16.36-7.25l.05-10.51,11.35.06-.05,10.12a60.06,60.06,0,0,1,13.42,2.48,38.57,38.57,0,0,1,10.48,4.83l-6.22,13.78a40.29,40.29,0,0,0-10.28-4.78,39.24,39.24,0,0,0-11.53-1.85c-7.2,0-10.8,1.74-10.82,5.34q0,2.83,3.06,4.22a57.44,57.44,0,0,0,9.86,2.94,94.13,94.13,0,0,1,12.48,3.51,21.2,21.2,0,0,1,8.58,6q3.57,4.1,3.54,11a18.93,18.93,0,0,1-5.94,13.92q-5.9,5.79-17,7.06l-.05,10.41-11.36-.06.05-10.22A55.22,55.22,0,0,1,253.4,1083a38.33,38.33,0,0,1-8.83-3.73l5.85-13.88a38.51,38.51,0,0,0,18.32,5.19c3.72,0,6.44-.51,8.14-1.61a5,5,0,0,0,2.58-4.29c0-1.77-1-3.09-3-4a55,55,0,0,0-9.72-2.79,90.66,90.66,0,0,1-12.52-3.51,21.54,21.54,0,0,1-8.58-5.91q-3.63-4-3.6-10.94A18.73,18.73,0,0,1,247.73,1023.94Z" transform="translate(-8.23 -8.55)"/>
          </g>
          <g>
            <path class="cls-3" d="M1429.35,1719.71q-1.65,8.6-9.88,13.26a21.31,21.31,0,0,1-11.39,2.81,22.05,22.05,0,0,1-11.92-4.33q-5.88-4.14-10.58-12.44a58.05,58.05,0,0,1-5.36-12.91,39.93,39.93,0,0,1-1.6-12.61l15.57-1.11a32.71,32.71,0,0,0,.77,9.61,33.44,33.44,0,0,0,3.51,9.06,14.35,14.35,0,0,0,5.4,5.81,5.84,5.84,0,0,0,5.91,0,5.52,5.52,0,0,0,3-4.94q.07-3.32-3.47-9.57l-8.86-15.64,35.31-16.18,20.79,36.71-12.59,7.14-13.16-23.22-8.81,4,2.19,3.86Q1431,1711.11,1429.35,1719.71Z" transform="translate(-8.23 -8.55)"/>
            <path class="cls-3" d="M1434.08,1788.79q-7.75-2.08-14.42-10.58l-9.14,5.18-5.59-9.88,8.8-5a59.63,59.63,0,0,1-4.52-12.88,38.68,38.68,0,0,1-1-11.5l15-1.45a42,42,0,0,0,5.09,22.24q5.33,9.38,10,6.72c1.65-.94,2.36-2.52,2.16-4.75a58.09,58.09,0,0,0-2.36-10,93,93,0,0,1-3.15-12.57,20.85,20.85,0,0,1,.9-10.4c1.17-3.42,3.77-6.26,7.77-8.53a18.92,18.92,0,0,1,15-1.78q8,2.23,14.56,11.21l9.06-5.12,5.59,9.87-8.88,5a55.07,55.07,0,0,1,3.45,9.94,37.94,37.94,0,0,1,1.15,9.53l-14.95,1.82q-.21-10.74-4.59-18.49c-1.83-3.24-3.65-5.32-5.45-6.26a5,5,0,0,0-5-.11c-1.54.88-2.18,2.41-2,4.6a54.61,54.61,0,0,0,2.41,9.84,89.81,89.81,0,0,1,3.18,12.6,21.6,21.6,0,0,1-.87,10.38c-1.12,3.44-3.7,6.29-7.71,8.56A18.71,18.71,0,0,1,1434.08,1788.79Z" transform="translate(-8.23 -8.55)"/>
          </g>
          <g>
            <path class="cls-3" d="M695.43,405.59q1.65-8.59,9.89-13.26a21.13,21.13,0,0,1,11.39-2.81,22.11,22.11,0,0,1,11.93,4.33c3.91,2.76,7.43,6.89,10.57,12.44a56.53,56.53,0,0,1,5.34,12.9,39.16,39.16,0,0,1,1.61,12.62l-15.57,1.11a32.46,32.46,0,0,0-.76-9.62,33.84,33.84,0,0,0-3.51-9.05,14.35,14.35,0,0,0-5.4-5.81,5.82,5.82,0,0,0-5.91,0,5.52,5.52,0,0,0-3,4.94q-.07,3.31,3.46,9.57l8.87,15.63-35.31,16.2L668.27,418.1,680.86,411,694,434.18l8.81-4-2.18-3.86Q693.77,414.2,695.43,405.59Z" transform="translate(-8.23 -8.55)"/>
            <path class="cls-3" d="M690.71,336.51q7.75,2.08,14.42,10.58l9.14-5.18,5.59,9.88-8.8,5a59.34,59.34,0,0,1,4.52,12.89,38.59,38.59,0,0,1,1,11.49l-15.05,1.45a42,42,0,0,0-5.09-22.23q-5.33-9.39-10-6.73c-1.64.93-2.36,2.52-2.15,4.75a58.09,58.09,0,0,0,2.36,10A93,93,0,0,1,689.81,381a21,21,0,0,1-.89,10.4c-1.19,3.42-3.77,6.26-7.78,8.53a18.93,18.93,0,0,1-15,1.78q-8-2.23-14.56-11.22l-9.06,5.13-5.59-9.88,8.88-5a54.54,54.54,0,0,1-3.45-9.94,37.75,37.75,0,0,1-1.15-9.52l14.94-1.82q.21,10.75,4.61,18.48c1.82,3.25,3.64,5.32,5.45,6.27a4.93,4.93,0,0,0,5,.1c1.54-.87,2.19-2.4,2-4.59a55.53,55.53,0,0,0-2.42-9.84,89.81,89.81,0,0,1-3.18-12.6,21.77,21.77,0,0,1,.86-10.39c1.13-3.44,3.71-6.28,7.72-8.55A18.63,18.63,0,0,1,690.71,336.51Z" transform="translate(-8.23 -8.55)"/>
          </g>
        </g>
        <path class="cls-2" d="M1126.73,1062.88a64.17,64.17,0,1,1-64.17-64.17A64.16,64.16,0,0,1,1126.73,1062.88Z" transform="translate(-8.23 -8.55)"/>
      </g>
    </g>
  </g>
</svg>
