<svg xmlns="http://www.w3.org/2000/svg" xmlns:xlink="http://www.w3.org/1999/xlink" viewBox="0 0 2119.82 2119.82">
  <defs>
    <style>
      .cls-1 {
        isolation: isolate;
      }

      .cls-2 {
        fill: #fff;
      }

      .cls-3 {
        fill: #001e38;
      }

      .cls-4 {
        fill: url(#linear-gradient);
      }

      .cls-5 {
        fill: url(#linear-gradient-2);
      }

      .cls-6 {
        fill: url(#linear-gradient-3);
      }

      .cls-7 {
        fill: url(#linear-gradient-4);
      }

      .cls-8 {
        fill: url(#linear-gradient-5);
      }

      .cls-9 {
        fill: url(#linear-gradient-6);
      }

      .cls-10 {
        fill: url(#linear-gradient-7);
      }

      .cls-11 {
        fill: url(#linear-gradient-8);
      }

      .cls-12 {
        fill: url(#linear-gradient-9);
      }

      .cls-13 {
        fill: url(#linear-gradient-10);
      }

      .cls-14 {
        fill: url(#linear-gradient-11);
      }

      .cls-15 {
        fill: url(#linear-gradient-12);
      }

      .cls-16 {
        mix-blend-mode: multiply;
      }

      .cls-17 {
        opacity: 0.7;
        mix-blend-mode: color-burn;
        fill: url(#radial-gradient);
      }
    </style>
    <linearGradient id="linear-gradient" x1="709.41" y1="1391.51" x2="669.08" y2="1335.81" gradientUnits="userSpaceOnUse">
      <stop offset="0" stop-color="#fe7a18"/>
      <stop offset="0.33" stop-color="#fe9215"/>
      <stop offset="1" stop-color="#ffcc0f"/>
    </linearGradient>
    <linearGradient id="linear-gradient-2" x1="1182.78" y1="1526.56" x2="1092.52" y2="1540" gradientUnits="userSpaceOnUse">
      <stop offset="0" stop-color="#ff260d"/>
      <stop offset="0.14" stop-color="#fe3e0e"/>
      <stop offset="0.4" stop-color="#fd6410"/>
      <stop offset="0.63" stop-color="#fd7f11"/>
      <stop offset="0.84" stop-color="#fc8f12"/>
      <stop offset="1" stop-color="#fc9512"/>
    </linearGradient>
    <linearGradient id="linear-gradient-3" x1="1523.74" y1="1194.62" x2="1483.41" y2="1288.73" gradientUnits="userSpaceOnUse">
      <stop offset="0" stop-color="#006f67"/>
      <stop offset="0.07" stop-color="#00766b"/>
      <stop offset="0.7" stop-color="#00b393"/>
      <stop offset="1" stop-color="#00cba2"/>
    </linearGradient>
    <linearGradient id="linear-gradient-4" x1="1383.94" y1="713.64" x2="1453.08" y2="809.66" xlink:href="#linear-gradient"/>
    <linearGradient id="linear-gradient-5" x1="599.96" y1="926.95" x2="628.77" y2="852.05" xlink:href="#linear-gradient-3"/>
    <linearGradient id="linear-gradient-6" x1="942.81" y1="595.34" x2="1021.55" y2="583.82" xlink:href="#linear-gradient-2"/>
    <linearGradient id="linear-gradient-7" x1="1517.39" y1="909.87" x2="1536.6" y2="1005.9" xlink:href="#linear-gradient-2"/>
    <linearGradient id="linear-gradient-8" x1="603.2" y1="1214.1" x2="589.75" y2="1144.96" xlink:href="#linear-gradient-2"/>
    <linearGradient id="linear-gradient-9" x1="1155.74" y1="588.88" x2="1337.24" y2="652.26" xlink:href="#linear-gradient-3"/>
    <linearGradient id="linear-gradient-10" x1="960.64" y1="1533.69" x2="870.37" y2="1501.04" xlink:href="#linear-gradient-3"/>
    <linearGradient id="linear-gradient-11" x1="1422.18" y1="1378.65" x2="1335.75" y2="1457.39" xlink:href="#linear-gradient"/>
    <linearGradient id="linear-gradient-12" x1="710.97" y1="733.73" x2="768.59" y2="679.95" xlink:href="#linear-gradient"/>
    <radialGradient id="radial-gradient" cx="1047.53" cy="1083.06" r="106.4" gradientUnits="userSpaceOnUse">
      <stop offset="0.34" stop-color="#400500"/>
      <stop offset="0.37" stop-color="#4f1814"/>
      <stop offset="0.47" stop-color="#7d5451"/>
      <stop offset="0.57" stop-color="#a48886"/>
      <stop offset="0.67" stop-color="#c5b3b2"/>
      <stop offset="0.76" stop-color="#ded4d3"/>
      <stop offset="0.85" stop-color="#f0eceb"/>
      <stop offset="0.93" stop-color="#fbfafa"/>
      <stop offset="1" stop-color="#fff"/>
    </radialGradient>
  </defs>
  <title>SPINNERV2</title>
  <g class="cls-1">
    <g id="Layer_1" data-name="Layer 1">
      <g>
        <circle class="cls-2" cx="1059.91" cy="1059.91" r="1059.91"/>
        <path class="cls-3" d="M2098.25,1061.34c0,573.09-464.55,1037.64-1037.64,1037.64S23,1634.43,23,1061.34C23,504.1,462.21,49.51,1013.25,24.82c15.75-.71,31.51-1.12,47.36-1.12q26.67,0,53.15,1.32C1662.16,52.66,2098.25,506,2098.25,1061.34Z" transform="translate(-0.7 -1.43)"/>
        <path class="cls-4" d="M364.8,1717.12l695.81-655.78L144.55,1336.1A955.13,955.13,0,0,0,364.8,1717.12Z" transform="translate(-0.7 -1.43)"/>
        <path class="cls-5" d="M1060.62,2017.52A958.9,958.9,0,0,0,1280.68,1992l-220.07-930.69L840.54,1992A959.14,959.14,0,0,0,1060.62,2017.52Z" transform="translate(-0.7 -1.43)"/>
        <path class="cls-6" d="M1976.66,1336.1l-916.05-274.76,695.81,655.78A955.06,955.06,0,0,0,1976.66,1336.1Z" transform="translate(-0.7 -1.43)"/>
        <path class="cls-7" d="M1756.42,405.55l-715.65,671.18,935.89-290.15A955,955,0,0,0,1756.42,405.55Z" transform="translate(-0.7 -1.43)"/>
        <path class="cls-8" d="M144.55,786.58l916.06,274.76L364.8,405.55A955.17,955.17,0,0,0,144.55,786.58Z" transform="translate(-0.7 -1.43)"/>
        <path class="cls-9" d="M1060.62,105.15a958.59,958.59,0,0,0-220.08,25.5l220.07,930.69,220.07-930.69A958.35,958.35,0,0,0,1060.62,105.15Z" transform="translate(-0.7 -1.43)"/>
        <path class="cls-10" d="M2016.81,1065.61a984.86,984.86,0,0,0-40.15-279l-916.05,279,916.05,279A984.84,984.84,0,0,0,2016.81,1065.61Z" transform="translate(-0.7 -1.43)"/>
        <path class="cls-11" d="M104.41,1061.34a956,956,0,0,0,40.14,274.76l916.06-274.76L144.55,786.58A956,956,0,0,0,104.41,1061.34Z" transform="translate(-0.7 -1.43)"/>
        <path class="cls-12" d="M1198.88,115.49q40.41,6,79.67,15.16l-221.06,930.69,698.93-655.79C1611.82,252.87,1417.33,147.58,1198.88,115.49Z" transform="translate(-0.7 -1.43)"/>
        <path class="cls-13" d="M919.84,2007.18q-40.22-5.94-79.3-15.15l220.07-930.69L364.8,1717.12C508.75,1869.79,702.36,1975.09,919.84,2007.18Z" transform="translate(-0.7 -1.43)"/>
        <path class="cls-14" d="M1060.61,1061.34,1280.68,1992q-39,9.2-79.29,15.15c217.46-32.09,411.08-137.39,555-290.06Z" transform="translate(-0.7 -1.43)"/>
        <path class="cls-15" d="M919.86,115.49C693.26,148.92,492.57,261.84,347,425q8.79-9.84,17.83-19.46l695.81,655.79L840.54,130.65Q879.6,121.44,919.86,115.49Z" transform="translate(-0.7 -1.43)"/>
        <g>
          <path class="cls-3" d="M1034.16,1758.94h-14.93V1707.1H1031l23.31,24.92a23.81,23.81,0,0,0,5.84,4.85,10.75,10.75,0,0,0,4.91,1.23,6.15,6.15,0,0,0,5-2.18c1.21-1.46,1.8-3.58,1.8-6.37a14.19,14.19,0,0,0-1.65-6.8,13.62,13.62,0,0,0-4.81-5.09l7.8-14a27.45,27.45,0,0,1,10.18,10.94,35.28,35.28,0,0,1,3.71,16.64,34.45,34.45,0,0,1-2.47,13.46,20.93,20.93,0,0,1-7.09,9.13,18,18,0,0,1-10.7,3.29,23.31,23.31,0,0,1-10.23-2.33q-4.8-2.34-10.89-9l-11.6-12.55Z" transform="translate(-0.7 -1.43)"/>
          <path class="cls-3" d="M1022,1778.53a27.41,27.41,0,0,1,11.93-10.41,47.74,47.74,0,0,1,37.19,0,27.5,27.5,0,0,1,11.94,10.41,30.18,30.18,0,0,1,0,30.34,27.56,27.56,0,0,1-11.94,10.41,48,48,0,0,1-37.19,0,27.48,27.48,0,0,1-11.93-10.41,30.18,30.18,0,0,1,0-30.34Zm15.93,22.77q4.61,2.81,14.6,2.81t14.6-2.81q4.61-2.8,4.6-7.56c0-3.23-1.53-5.79-4.6-7.65s-7.95-2.81-14.6-2.81-11.53.93-14.6,2.81-4.61,4.42-4.61,7.65S1034.84,1799.43,1037.92,1801.3Z" transform="translate(-0.7 -1.43)"/>
          <path class="cls-3" d="M1025.74,1880.15q-5.75-5.67-7.36-16.41h-10.56v-11.41H1018a59.72,59.72,0,0,1,2.43-13.51,38.85,38.85,0,0,1,4.8-10.56l13.88,6.18a40.55,40.55,0,0,0-4.75,10.37,39.63,39.63,0,0,0-1.81,11.61q0,10.83,5.43,10.83,2.85,0,4.23-3.08a58.65,58.65,0,0,0,2.9-9.94,94.08,94.08,0,0,1,3.47-12.55,21.11,21.11,0,0,1,5.94-8.66c2.72-2.41,6.41-3.62,11-3.62a19.05,19.05,0,0,1,14,5.91q5.85,5.89,7.17,17h10.46v11.41h-10.27a54.88,54.88,0,0,1-1.9,10.41,38.43,38.43,0,0,1-3.71,8.89l-14-5.8q5.13-9.49,5.14-18.45c0-3.74-.56-6.46-1.67-8.18a5,5,0,0,0-4.33-2.56q-2.65,0-4,3a55.11,55.11,0,0,0-2.75,9.79,93.19,93.19,0,0,1-3.48,12.61,21.77,21.77,0,0,1-5.89,8.65q-4.05,3.66-11,3.66A18.82,18.82,0,0,1,1025.74,1880.15Z" transform="translate(-0.7 -1.43)"/>
        </g>
        <g>
          <path class="cls-3" d="M1035,367.26h66.58v18.83h-52v12.37H1035Z" transform="translate(-0.7 -1.43)"/>
          <path class="cls-3" d="M1098.84,343.11a27.48,27.48,0,0,1-11.93,10.41,48,48,0,0,1-37.19,0,27.56,27.56,0,0,1-11.94-10.41,30.18,30.18,0,0,1,0-30.34,27.5,27.5,0,0,1,11.94-10.41,47.74,47.74,0,0,1,37.19,0,27.41,27.41,0,0,1,11.93,10.41,30.18,30.18,0,0,1,0,30.34Zm-15.93-22.78q-4.61-2.82-14.6-2.81t-14.6,2.81c-3.07,1.86-4.6,4.39-4.6,7.55s1.53,5.79,4.6,7.66,8,2.81,14.6,2.81,11.53-.94,14.6-2.81,4.62-4.42,4.62-7.66S1086,322.19,1082.91,320.33Z" transform="translate(-0.7 -1.43)"/>
          <path class="cls-3" d="M1095.09,241.49q5.75,5.65,7.36,16.4H1113v11.42h-10.17a59.55,59.55,0,0,1-2.43,13.49,38.71,38.71,0,0,1-4.8,10.56l-13.88-6.18a40.33,40.33,0,0,0,4.75-10.36,39.62,39.62,0,0,0,1.81-11.6q0-10.86-5.43-10.85c-1.9,0-3.3,1-4.23,3.1a57.62,57.62,0,0,0-2.9,9.93,95.14,95.14,0,0,1-3.47,12.56,21.21,21.21,0,0,1-5.94,8.65c-2.72,2.41-6.41,3.61-11,3.61a19,19,0,0,1-14-5.89q-5.85-5.9-7.18-17h-10.46V257.89h10.27a55.27,55.27,0,0,1,1.9-10.42,38.8,38.8,0,0,1,3.71-8.89l14,5.8q-5.13,9.52-5.14,18.45,0,5.63,1.67,8.18a5,5,0,0,0,4.33,2.57q2.65,0,4-3a55.45,55.45,0,0,0,2.76-9.8,91.11,91.11,0,0,1,3.47-12.59,21.66,21.66,0,0,1,5.89-8.66q4-3.66,11-3.66A18.79,18.79,0,0,1,1095.09,241.49Z" transform="translate(-0.7 -1.43)"/>
        </g>
        <g>
          <path class="cls-3" d="M1736,704l7.41,13-45,25.77-5.87-10.23,10-32.61a23.37,23.37,0,0,0,1.31-7.48,10.62,10.62,0,0,0-1.37-4.86,6.16,6.16,0,0,0-4.4-3.29c-1.86-.32-4,.21-6.42,1.6a14,14,0,0,0-5.08,4.82,13.6,13.6,0,0,0-2,6.7l-16,.18a27.32,27.32,0,0,1,4.43-14.26,35,35,0,0,1,12.59-11.49,34.3,34.3,0,0,1,12.91-4.55,20.88,20.88,0,0,1,11.45,1.61,18,18,0,0,1,8.16,7.65,23.31,23.31,0,0,1,3.06,10q.38,5.33-2.39,13.91l-5.11,16.32Z" transform="translate(-0.7 -1.43)"/>
          <path class="cls-3" d="M1788.88,683.38q-2.06,7.8-10.57,14.54l5.25,9.16-9.91,5.67-5.06-8.82a59.19,59.19,0,0,1-12.92,4.6,38.24,38.24,0,0,1-11.55,1.08l-1.54-15.12a40.13,40.13,0,0,0,11.36-1,38.63,38.63,0,0,0,11-4.2c6.26-3.59,8.51-7,6.71-10.09-.94-1.64-2.54-2.35-4.78-2.13a55.94,55.94,0,0,0-10.07,2.43,95.72,95.72,0,0,1-12.62,3.22,21,21,0,0,1-10.46-.85c-3.46-1.17-6.32-3.76-8.63-7.78a19,19,0,0,1-1.85-15.1q2.2-8,11.19-14.7l-5.2-9.08,9.91-5.67,5.11,8.91a55.51,55.51,0,0,1,10-3.52,37.81,37.81,0,0,1,9.56-1.2l1.91,15a38.73,38.73,0,0,0-18.55,4.72c-3.25,1.86-5.34,3.7-6.28,5.5a5,5,0,0,0-.08,5c.89,1.54,2.43,2.21,4.63,2a55.3,55.3,0,0,0,9.87-2.47,91.33,91.33,0,0,1,12.66-3.26,21.77,21.77,0,0,1,10.45.82c3.44,1.12,6.33,3.69,8.63,7.71A18.82,18.82,0,0,1,1788.88,683.38Z" transform="translate(-0.7 -1.43)"/>
        </g>
        <g>
          <path class="cls-3" d="M465.14,1431.15,432,1373.39l16.35-9.37,25.86,45.15L485,1403l7.23,12.63Z" transform="translate(-0.7 -1.43)"/>
          <path class="cls-3" d="M402,1432.79q-8.65-1.61-13.39-9.87a21.3,21.3,0,0,1-2.88-11.44,22.2,22.2,0,0,1,4.3-12q4.13-5.91,12.46-10.69a58,58,0,0,1,12.93-5.45,40.21,40.21,0,0,1,12.68-1.67l1.19,15.66a32.43,32.43,0,0,0-9.66.82,33.55,33.55,0,0,0-9.08,3.56,14.19,14.19,0,0,0-5.81,5.46,5.85,5.85,0,0,0,.06,5.94,5.52,5.52,0,0,0,5,3c2.23,0,5.42-1.12,9.6-3.52l15.68-9,16.45,35.4L414.72,1460l-7.22-12.62,23.26-13.33-4.08-8.86-3.88,2.23Q410.67,1434.4,402,1432.79Z" transform="translate(-0.7 -1.43)"/>
          <path class="cls-3" d="M332.6,1437.88q2.06-7.8,10.57-14.55l-5.25-9.16,9.9-5.68,5.05,8.82a59.94,59.94,0,0,1,12.93-4.59,38.86,38.86,0,0,1,11.55-1.08l1.54,15.11a39.76,39.76,0,0,0-11.36,1,39.34,39.34,0,0,0-11,4.19q-9.42,5.4-6.71,10.1,1.41,2.46,4.77,2.13a56.8,56.8,0,0,0,10.07-2.42,96.17,96.17,0,0,1,12.62-3.24,21.41,21.41,0,0,1,10.46.86c3.45,1.18,6.32,3.76,8.62,7.78a19,19,0,0,1,1.86,15.1q-2.2,8-11.2,14.69l5.2,9.08-9.9,5.68-5.1-8.91a55.1,55.1,0,0,1-10,3.52,38.3,38.3,0,0,1-9.55,1.2l-1.92-15a38.75,38.75,0,0,0,18.56-4.73c3.25-1.85,5.33-3.7,6.27-5.51a5,5,0,0,0,.07-5q-1.32-2.32-4.62-2a55.59,55.59,0,0,0-9.88,2.48,92.1,92.1,0,0,1-12.65,3.25,21.83,21.83,0,0,1-10.44-.81c-3.46-1.13-6.34-3.69-8.65-7.71A18.83,18.83,0,0,1,332.6,1437.88Z" transform="translate(-0.7 -1.43)"/>
        </g>
        <g>
          <path class="cls-3" d="M1728.18,1422.53,1694.51,1480l-16.25-9.53,26.31-44.88-10.67-6.25,7.35-12.56Z" transform="translate(-0.7 -1.43)"/>
          <path class="cls-3" d="M1750.1,1505q-7.78,2.1-17.86-1.93l-5.34,9.11-9.86-5.77,5.15-8.78a59.92,59.92,0,0,1-10.43-8.93,39.19,39.19,0,0,1-6.68-9.49l12.36-8.85a39.8,39.8,0,0,0,6.54,9.35,39.27,39.27,0,0,0,9.1,7.42q9.35,5.49,12.09.82,1.44-2.48-.53-5.22a56.31,56.31,0,0,0-7.1-7.53,95.65,95.65,0,0,1-9.08-9.34,21.32,21.32,0,0,1-4.46-9.51c-.69-3.57.12-7.36,2.46-11.35a19.07,19.07,0,0,1,12.18-9.12q8.05-2.06,18.32,2.42l5.29-9,9.86,5.77-5.2,8.86a56.48,56.48,0,0,1,8,6.9,38.11,38.11,0,0,1,5.8,7.7l-12.08,9.13q-5.6-9.24-13.32-13.76-4.83-2.84-7.89-2.7a5,5,0,0,0-4.4,2.43c-.91,1.54-.7,3.2.6,5a54.21,54.21,0,0,0,7.06,7.33,91.78,91.78,0,0,1,9.12,9.38,21.76,21.76,0,0,1,4.49,9.45c.73,3.57-.06,7.34-2.41,11.34A18.81,18.81,0,0,1,1750.1,1505Z" transform="translate(-0.7 -1.43)"/>
        </g>
        <g>
          <path class="cls-3" d="M393.41,699l33.66-57.44,16.25,9.53L417,696l10.67,6.25-7.36,12.56Z" transform="translate(-0.7 -1.43)"/>
          <path class="cls-3" d="M371.47,616.54q7.8-2.1,17.88,1.94l5.34-9.11,9.84,5.77-5.14,8.78a59.43,59.43,0,0,1,10.42,8.92,38.89,38.89,0,0,1,6.69,9.49l-12.36,8.85a39.47,39.47,0,0,0-6.55-9.35,38.86,38.86,0,0,0-9.09-7.42q-9.35-5.48-12.08-.81c-1,1.64-.79,3.38.51,5.21a57.33,57.33,0,0,0,7.12,7.54,93.18,93.18,0,0,1,9.07,9.34,21.18,21.18,0,0,1,4.46,9.5c.7,3.57-.11,7.35-2.46,11.35A19.1,19.1,0,0,1,383,685.66q-8,2.07-18.33-2.42l-5.29,9-9.84-5.78,5.19-8.86a54.78,54.78,0,0,1-8-6.9,38.49,38.49,0,0,1-5.8-7.7l12.08-9.13q5.61,9.26,13.32,13.77c3.23,1.89,5.86,2.78,7.89,2.7a5,5,0,0,0,4.41-2.44c.9-1.52.69-3.2-.61-5a55.35,55.35,0,0,0-7.05-7.32,93.92,93.92,0,0,1-9.12-9.37,21.77,21.77,0,0,1-4.49-9.47q-1.11-5.34,2.4-11.32A18.84,18.84,0,0,1,371.47,616.54Z" transform="translate(-0.7 -1.43)"/>
        </g>
        <g class="cls-16">
          <g>
            <path class="cls-3" d="M1388.94,545.61l12.91,7.48L1372,604.68l-10.2-5.91-17.65-49-16.4,28.31-12.92-7.5L1343.54,521l10.2,5.9,17.65,49Z" transform="translate(-0.7 -1.43)"/>
            <path class="cls-3" d="M1420.21,492.39l12.6,7.3L1406,545.94l-57.59-33.39,26.18-45.17,12.58,7.3-16.83,29,9.71,5.63,14.83-25.59,12.17,7.06-14.82,25.58,10.54,6.12Z" transform="translate(-0.7 -1.43)"/>
            <path class="cls-3" d="M1437.34,456.6l-5.15,8.88,15.31,8.87-9.45,16.3-57.6-33.39,15.26-26.33a38.19,38.19,0,0,1,10.46-12.08,24.24,24.24,0,0,1,34.9,8.08,23,23,0,0,1,2.44,12.58l25.3-1.94L1458.7,455Zm-22.75-23.53q-3.71,1.28-6.61,6.29l-5.24,9.05,16.87,9.77,5.24-9.05q2.89-5,2.2-8.83a8.92,8.92,0,0,0-4.73-6.15A9.08,9.08,0,0,0,1414.59,433.07Z" transform="translate(-0.7 -1.43)"/>
            <path class="cls-3" d="M1478,415.55a34,34,0,0,1-52.18-30.23,42.5,42.5,0,0,1,19-32.83A34,34,0,0,1,1497,382.72a42.53,42.53,0,0,1-19,32.83Zm2.4-31.09a17.19,17.19,0,0,0-2.56-9,21.95,21.95,0,0,0-17.19-10,17.19,17.19,0,0,0-9,2.23,18.77,18.77,0,0,0-9.16,15.8,16.93,16.93,0,0,0,2.57,8.95,21.88,21.88,0,0,0,17.19,10,17.14,17.14,0,0,0,9-2.23,18.68,18.68,0,0,0,9.15-15.8Z" transform="translate(-0.7 -1.43)"/>
          </g>
          <g>
            <path class="cls-3" d="M846,1350.28a24.2,24.2,0,0,1,11.2-4.82l5.38,15q-8.67,1.13-11.77,6.47a7.77,7.77,0,0,0-1,6.64c.7,2,2.44,3.88,5.18,5.46l24.77,14.37,11.53-19.92,12.6,7.29-20.9,36-36.37-21.08q-11.19-6.49-13.52-15.37t4-19.82A33.89,33.89,0,0,1,846,1350.28Z" transform="translate(-0.7 -1.43)"/>
            <path class="cls-3" d="M808.58,1438.3l14.11-24.37-8.56-11,9.62-16.62,42.88,58.81-9.3,16-72.39-7.87,9.82-17Zm14.78,2.18,22.72,3.28-14.14-18.09Z" transform="translate(-0.7 -1.43)"/>
            <path class="cls-3" d="M778.19,1471.08a33,33,0,0,1,17.22-5.13,36,36,0,0,1,30.93,17.92,33.06,33.06,0,0,1,4.1,17.49,39.51,39.51,0,0,1-5.58,18.48,40.49,40.49,0,0,1-11.06,12.61,31.74,31.74,0,0,1-14.16,5.86l-3.37-15.8q10-1.69,14.61-9.68a19.45,19.45,0,0,0,2.79-9.54,16.44,16.44,0,0,0-2.52-9,22.28,22.28,0,0,0-17.19-10,16.42,16.42,0,0,0-9.09,2.31,19.38,19.38,0,0,0-6.9,7.15q-4.63,8-1.12,17.49l-15.39,4.93a31.62,31.62,0,0,1-2-15.19,40.41,40.41,0,0,1,5.45-15.86A39.48,39.48,0,0,1,778.19,1471.08Z" transform="translate(-0.7 -1.43)"/>
            <path class="cls-3" d="M755.58,1552.12l-3-9.85-14.4-8.35,9.35-16.13,57.61,33.38-9.35,16.13-23.95-13.88,11,36.18-10.39,17.93-11.88-38.31-46.43,6.17,11-18.93Z" transform="translate(-0.7 -1.43)"/>
            <path class="cls-3" d="M743.57,1651.45A23,23,0,0,1,731,1656a23.46,23.46,0,0,1-24.81-26.24,38,38,0,0,1,5.29-15.07l5.81-10-15-8.72,9.43-16.3,57.61,33.39L754,1639.38A37.9,37.9,0,0,1,743.57,1651.45ZM722.69,1630a9,9,0,0,0,4.74,6.16,9.1,9.1,0,0,0,7.73,1.07q3.71-1.27,6.61-6.28l5.25-9.06-16.88-9.78-5.25,9.06Q722,1626.19,722.69,1630Z" transform="translate(-0.7 -1.43)"/>
            <path class="cls-3" d="M672,1654.52a34.57,34.57,0,0,1,48.1,12.59,33.72,33.72,0,0,1,4.07,17.64,42.58,42.58,0,0,1-19,32.83,34,34,0,0,1-52.17-30.23,42.5,42.5,0,0,1,19-32.83Zm-2.42,31.08a17.18,17.18,0,0,0,2.57,9,22,22,0,0,0,17.19,10,17.2,17.2,0,0,0,9.05-2.24,18.8,18.8,0,0,0,9.16-15.8,17.22,17.22,0,0,0-2.56-9,21.95,21.95,0,0,0-17.19-10,17.12,17.12,0,0,0-9.06,2.22,18.71,18.71,0,0,0-9.16,15.8Z" transform="translate(-0.7 -1.43)"/>
            <path class="cls-3" d="M674.25,1747.25l10.26-17.68,12.92,7.48-29.9,51.59-12.92-7.48,10.2-17.61-44.67-25.89,9.44-16.3Z" transform="translate(-0.7 -1.43)"/>
          </g>
          <g>
            <path class="cls-3" d="M1752,1068.88c4.44,3.83,6.66,8.91,6.62,15.25a21.17,21.17,0,0,1-3.24,11.35,22,22,0,0,1-9.73,8.22q-6.54,3.08-16.14,3a57.72,57.72,0,0,1-13.93-1.79,39.84,39.84,0,0,1-11.82-4.9l6.82-14.14a32.1,32.1,0,0,0,8.79,4.13,33.37,33.37,0,0,0,9.64,1.47,14.16,14.16,0,0,0,7.76-1.81,5.82,5.82,0,0,0,2.93-5.16,5.52,5.52,0,0,0-2.83-5.06c-1.9-1.16-5.26-1.74-10.07-1.76l-18.07-.09,3.52-38.89,42.41.21-.07,14.56-26.82-.14-.9,9.7,4.46,0Q1745.31,1063.14,1752,1068.88Z" transform="translate(-0.7 -1.43)"/>
            <path class="cls-3" d="M1778.12,1102.87a27.57,27.57,0,0,1-10.35-12,47.92,47.92,0,0,1,.19-37.19,27.4,27.4,0,0,1,10.47-11.88,30.15,30.15,0,0,1,30.34.15,27.58,27.58,0,0,1,10.35,12q3.72,7.86,3.66,18.61a42.79,42.79,0,0,1-3.85,18.58,27.4,27.4,0,0,1-10.47,11.88,30.21,30.21,0,0,1-30.34-.15Zm22.86-15.82c1.88-3.06,2.85-7.93,2.88-14.59s-.88-11.52-2.73-14.61-4.38-4.64-7.55-4.65-5.78,1.51-7.67,4.58-2.85,7.93-2.89,14.58.89,11.53,2.74,14.62,4.4,4.63,7.64,4.64S1799.09,1090.11,1801,1087.05Z" transform="translate(-0.7 -1.43)"/>
            <path class="cls-3" d="M1879.76,1099.61q-5.68,5.72-16.45,7.29l0,10.56-11.42-.06.05-10.18a59,59,0,0,1-13.49-2.49,39.15,39.15,0,0,1-10.54-4.85l6.26-13.85a39.92,39.92,0,0,0,10.34,4.8,39.32,39.32,0,0,0,11.59,1.86q10.85.06,10.88-5.36c0-1.91-1-3.32-3.08-4.25a56.93,56.93,0,0,0-9.91-2.95,94.75,94.75,0,0,1-12.55-3.53,21.23,21.23,0,0,1-8.62-6q-3.6-4.11-3.57-11a19.06,19.06,0,0,1,6-14q5.93-5.82,17-7.09l.06-10.46,11.41,0-.06,10.28a54.9,54.9,0,0,1,10.41,1.94,38.39,38.39,0,0,1,8.88,3.75l-5.88,14a38.7,38.7,0,0,0-18.42-5.22c-3.74,0-6.47.51-8.19,1.62a5,5,0,0,0-2.59,4.31c0,1.78,1,3.11,3,4a55.21,55.21,0,0,0,9.77,2.81,91.41,91.41,0,0,1,12.59,3.52,21.77,21.77,0,0,1,8.62,6q3.66,4.07,3.62,11A18.83,18.83,0,0,1,1879.76,1099.61Z" transform="translate(-0.7 -1.43)"/>
          </g>
          <g>
            <path class="cls-3" d="M432.09,1083.2l.33-66.58,18.84.09-.26,52,12.36.06-.07,14.56Z" transform="translate(-0.7 -1.43)"/>
            <path class="cls-3" d="M408.25,1019.26a27.36,27.36,0,0,1,10.35,12,47.92,47.92,0,0,1-.17,37.19A27.61,27.61,0,0,1,408,1080.32a28.56,28.56,0,0,1-15.25,4,28.27,28.27,0,0,1-15.09-4.17,27.5,27.5,0,0,1-10.36-12,47.86,47.86,0,0,1,.18-37.19,27.61,27.61,0,0,1,10.47-11.89,30.18,30.18,0,0,1,30.34.16Zm-22.85,15.81q-2.83,4.61-2.88,14.59c0,6.65.88,11.52,2.73,14.61s4.37,4.64,7.54,4.65,5.79-1.51,7.67-4.57,2.85-7.93,2.89-14.59-.88-11.53-2.74-14.61-4.4-4.63-7.63-4.65S387.28,1032,385.4,1035.07Z" transform="translate(-0.7 -1.43)"/>
            <path class="cls-3" d="M343.11,1018.93a27.51,27.51,0,0,1,10.35,12,48,48,0,0,1-.18,37.19A27.52,27.52,0,0,1,342.81,1080a30.14,30.14,0,0,1-30.34-.15,27.42,27.42,0,0,1-10.35-12,47.84,47.84,0,0,1,.18-37.18,27.46,27.46,0,0,1,10.47-11.9,30.28,30.28,0,0,1,30.34.15Zm-22.86,15.82c-1.88,3.07-2.85,7.93-2.88,14.59s.89,11.53,2.73,14.61,4.38,4.64,7.54,4.65,5.79-1.51,7.68-4.58,2.84-7.93,2.88-14.58-.88-11.53-2.73-14.62-4.4-4.63-7.64-4.64S322.14,1031.69,320.25,1034.75Z" transform="translate(-0.7 -1.43)"/>
            <path class="cls-3" d="M241.47,1022.19q5.68-5.72,16.44-7.29l0-10.56,11.42.06-.05,10.18a59.37,59.37,0,0,1,13.48,2.49,39.17,39.17,0,0,1,10.54,4.85l-6.25,13.86a40.09,40.09,0,0,0-10.34-4.81,39.32,39.32,0,0,0-11.59-1.86c-7.24,0-10.86,1.75-10.88,5.37q0,2.85,3.08,4.24a56.93,56.93,0,0,0,9.91,3,93.53,93.53,0,0,1,12.55,3.54,21.23,21.23,0,0,1,8.62,6q3.58,4.11,3.56,11.06a19,19,0,0,1-6,14q-5.93,5.82-17.05,7.1l-.05,10.46-11.41-.06.05-10.28a55,55,0,0,1-10.42-1.94,38.68,38.68,0,0,1-8.87-3.75l5.88-14a38.67,38.67,0,0,0,18.42,5.22c3.74,0,6.47-.51,8.19-1.61a5,5,0,0,0,2.59-4.32c0-1.78-1-3.11-3-4a56.26,56.26,0,0,0-9.78-2.81,91.23,91.23,0,0,1-12.58-3.52,21.7,21.7,0,0,1-8.63-6q-3.65-4.07-3.61-11A18.85,18.85,0,0,1,241.47,1022.19Z" transform="translate(-0.7 -1.43)"/>
          </g>
          <g>
            <path class="cls-3" d="M1429.34,1721.65q-1.65,8.63-9.93,13.33a21.49,21.49,0,0,1-11.45,2.83,22.12,22.12,0,0,1-12-4.36q-5.91-4.15-10.64-12.51a58.1,58.1,0,0,1-5.38-13,40.11,40.11,0,0,1-1.62-12.68l15.66-1.11a32.32,32.32,0,0,0,.78,9.65,33.47,33.47,0,0,0,3.52,9.11,14.3,14.3,0,0,0,5.43,5.84,5.85,5.85,0,0,0,5.94,0,5.53,5.53,0,0,0,3-5q.09-3.35-3.48-9.62l-8.91-15.73,35.5-16.27,20.9,36.91-12.66,7.18-13.23-23.34-8.86,4,2.2,3.88Q1431,1713,1429.34,1721.65Z" transform="translate(-0.7 -1.43)"/>
            <path class="cls-3" d="M1434.1,1791.09q-7.8-2.08-14.5-10.63l-9.18,5.2-5.63-9.92,8.85-5a59.36,59.36,0,0,1-4.54-13,38.65,38.65,0,0,1-1-11.55l15.12-1.46a40.09,40.09,0,0,0,1,11.37,39.65,39.65,0,0,0,4.15,11c3.57,6.3,6.91,8.54,10.06,6.76q2.47-1.41,2.16-4.77a58.17,58.17,0,0,0-2.37-10.09,94.34,94.34,0,0,1-3.17-12.63,21.08,21.08,0,0,1,.9-10.46q1.78-5.15,7.81-8.58a19.06,19.06,0,0,1,15.12-1.78q8,2.25,14.64,11.27l9.1-5.15,5.63,9.93-8.93,5.06a55.64,55.64,0,0,1,3.47,10,38.32,38.32,0,0,1,1.15,9.58l-15,1.84q-.19-10.82-4.61-18.59c-1.85-3.26-3.67-5.35-5.48-6.3a5,5,0,0,0-5-.11c-1.55.89-2.19,2.43-2,4.63a54.89,54.89,0,0,0,2.43,9.89,91,91,0,0,1,3.19,12.67,21.68,21.68,0,0,1-.87,10.43q-1.69,5.18-7.75,8.61A18.82,18.82,0,0,1,1434.1,1791.09Z" transform="translate(-0.7 -1.43)"/>
          </g>
          <g>
            <path class="cls-3" d="M691.54,400.57c1.11-5.77,4.42-10.2,9.94-13.33a21.22,21.22,0,0,1,11.45-2.83,22.18,22.18,0,0,1,12,4.36q5.9,4.16,10.63,12.51a56.44,56.44,0,0,1,5.37,13,39.6,39.6,0,0,1,1.62,12.69L726.89,428a32.41,32.41,0,0,0-.78-9.66,33.59,33.59,0,0,0-3.52-9.11,14.33,14.33,0,0,0-5.43-5.83,5.83,5.83,0,0,0-5.94,0,5.53,5.53,0,0,0-3,5q-.09,3.33,3.47,9.62l8.92,15.72-35.5,16.28-20.9-36.91L676.89,406l13.22,23.34,8.86-4-2.19-3.88Q689.87,409.21,691.54,400.57Z" transform="translate(-0.7 -1.43)"/>
            <path class="cls-3" d="M686.79,331.13q7.8,2.08,14.5,10.63l9.18-5.2,5.63,9.92-8.85,5a59.54,59.54,0,0,1,4.54,12.95,38.77,38.77,0,0,1,1,11.56l-15.13,1.46a42,42,0,0,0-5.12-22.35q-5.34-9.45-10.06-6.76c-1.65.93-2.38,2.53-2.16,4.77a57.9,57.9,0,0,0,2.37,10.08,94.43,94.43,0,0,1,3.17,12.64,21.2,21.2,0,0,1-.89,10.46c-1.2,3.43-3.8,6.29-7.83,8.57a19,19,0,0,1-15.11,1.79q-8-2.25-14.64-11.28l-9.1,5.16-5.63-9.94,8.93-5.06a56.68,56.68,0,0,1-3.47-10A38.19,38.19,0,0,1,637,356l15-1.84q.21,10.82,4.63,18.58c1.84,3.27,3.66,5.35,5.48,6.3a4.94,4.94,0,0,0,5,.1c1.55-.87,2.2-2.41,2-4.61a55.81,55.81,0,0,0-2.44-9.89A91,91,0,0,1,663.51,352a21.85,21.85,0,0,1,.86-10.44c1.14-3.46,3.73-6.31,7.76-8.6A18.73,18.73,0,0,1,686.79,331.13Z" transform="translate(-0.7 -1.43)"/>
          </g>
        </g>
        <path class="cls-17" d="M1153.93,1083.06a106.4,106.4,0,1,1-106.4-106.39A106.4,106.4,0,0,1,1153.93,1083.06Z" transform="translate(-0.7 -1.43)"/>
        <path class="cls-2" d="M1125.12,1061.34a64.51,64.51,0,1,1-64.51-64.51A64.51,64.51,0,0,1,1125.12,1061.34Z" transform="translate(-0.7 -1.43)"/>
      </g>
    </g>
  </g>
</svg>
